if (_typeface_js && _typeface_js.loadFace) _typeface_js.loadFace({"glyphs":{"S":{"x_min":5.5625,"x_max":630.609375,"ha":792,"o":"m 630 191 q 609 112 630 144 q 562 59 595 93 q 508 13 529 26 q 423 -11 463 -11 l 205 -11 q 30 102 118 -11 q 5 145 22 113 l 141 191 q 202 129 184 140 q 209 127 208 127 l 418 127 l 425 129 q 463 160 440 137 q 486 191 486 183 l 486 269 q 470 293 486 290 l 112 388 q 34 445 62 402 q 5 538 5 488 l 5 613 q 26 693 5 661 q 73 745 40 712 q 127 791 106 779 q 212 816 172 816 l 416 816 q 591 702 504 816 q 619 654 605 683 l 480 613 q 419 676 437 665 q 412 677 413 677 l 218 677 l 211 676 q 172 645 195 668 q 150 613 150 622 l 150 544 q 165 520 150 523 l 523 423 q 602 366 573 409 q 630 273 630 323 l 630 191 "},"¦":{"x_min":0,"x_max":0,"ha":726},"/":{"x_min":-16.671875,"x_max":591.71875,"ha":614,"o":"m 591 822 l 143 -4 l -16 -4 l 433 822 l 591 822 "},"y":{"x_min":-51.390625,"x_max":505.59375,"ha":604,"o":"m 505 595 l 234 -227 l 84 -227 l 156 -25 l -51 595 l 97 595 l 229 186 l 362 595 l 505 595 "},"≈":{"x_min":0,"x_max":0,"ha":695},"Ž":{"x_min":0,"x_max":0,"ha":714},"Á":{"x_min":-41.671875,"x_max":698.671875,"ha":807,"o":"m 698 -4 l 544 -4 l 484 170 l 172 170 l 111 -4 l -41 -4 l 244 820 l 412 820 l 698 -4 m 438 308 l 329 632 l 218 308 l 438 308 m 551 1077 l 313 859 l 162 900 l 358 1077 l 551 1077 "},"g":{"x_min":12.5,"x_max":545.875,"ha":706,"o":"m 545 594 l 533 469 l 533 -55 q 509 -143 533 -111 q 443 -209 486 -177 q 341 -240 400 -240 l 279 -240 l 219 -240 q 119 -206 168 -240 q 70 -160 100 -193 q 30 -104 40 -127 l 159 -65 l 161 -65 l 159 -65 q 163 -70 159 -66 q 215 -109 197 -109 l 276 -108 l 340 -108 q 348 -105 343 -108 q 376 -84 359 -98 q 394 -62 393 -69 l 394 -52 l 394 19 q 312 -11 351 -11 l 205 -11 q 104 19 147 -11 q 37 87 69 43 q 12 173 12 120 l 12 416 q 37 502 12 469 q 104 570 69 547 q 205 601 147 601 l 312 601 q 404 563 355 601 l 408 594 l 545 594 m 395 186 l 395 404 q 308 469 334 469 l 206 469 q 198 466 204 469 q 151 420 166 445 l 150 413 l 150 176 l 151 169 q 198 123 166 144 l 201 122 q 206 122 204 122 l 308 122 l 315 123 q 395 186 362 147 "},"²":{"x_min":-22.21875,"x_max":390.75,"ha":433,"o":"m 390 668 q 293 556 397 586 l 172 522 l 387 522 l 387 400 l 2 400 l 2 508 q 102 630 2 602 l 244 670 q 258 676 255 675 l 259 676 l 259 677 q 218 700 237 700 l 159 700 l 155 700 q 69 643 138 691 l -22 726 q 63 788 9 754 q 162 823 118 823 l 220 823 q 306 795 268 823 q 371 739 356 759 q 390 668 386 719 "},"–":{"x_min":11.109375,"x_max":319.46875,"ha":450,"o":"m 319 272 l 11 272 l 11 401 l 319 401 l 319 272 "},"ë":{"x_min":11.109375,"x_max":526.4375,"ha":678,"o":"m 526 225 l 150 225 l 150 173 l 151 166 q 178 134 161 150 q 205 119 195 119 l 284 119 l 340 118 q 391 156 358 118 q 395 162 395 161 l 394 162 q 395 162 395 163 l 525 123 q 485 67 515 100 q 436 20 455 34 q 336 -11 388 -11 l 263 -11 l 205 -11 q 104 18 145 -11 q 37 84 65 47 q 11 170 11 120 l 11 419 q 37 504 11 468 q 104 570 65 541 q 205 601 147 601 l 333 601 q 434 570 391 601 q 501 504 477 538 q 526 419 526 470 l 526 225 m 387 355 l 387 416 l 387 422 q 340 468 370 450 q 331 469 337 469 l 205 469 q 177 454 195 469 q 150 422 159 438 l 150 416 l 150 355 l 387 355 m 450 675 l 301 675 l 301 832 l 450 832 l 450 675 m 240 675 l 91 675 l 91 832 l 240 832 l 240 675 "},"ƒ":{"x_min":-90.28125,"x_max":388.921875,"ha":472,"o":"m 388 691 l 273 691 q 261 690 262 691 q 234 670 248 683 q 218 648 219 657 l 218 637 l 218 590 l 313 590 l 313 458 l 218 458 l 218 -4 l 218 -44 q 193 -131 218 -95 q 125 -200 162 -175 q 26 -229 83 -229 l -90 -229 l -90 -95 l 25 -95 l 33 -94 q 76 -48 62 -75 l 77 -41 l 77 458 l -13 458 l -13 590 l 77 590 l 79 640 q 104 726 81 695 q 170 793 134 768 q 272 823 213 823 l 388 823 l 388 691 "},"Î":{"x_min":-126.40625,"x_max":384.75,"ha":340,"o":"m 220 -4 l 76 -4 l 76 816 l 220 816 l 220 -4 m 384 908 l 329 884 l 216 884 l 136 957 l 122 957 l 43 884 l -70 884 l -126 908 l 69 1077 l 187 1077 l 384 908 "},"e":{"x_min":11.109375,"x_max":526.4375,"ha":678,"o":"m 526 225 l 150 225 l 150 173 l 151 166 q 178 134 161 150 q 205 119 195 119 l 284 119 l 340 118 q 391 156 358 118 q 395 162 395 161 l 394 162 q 395 162 395 163 l 525 123 q 485 67 515 100 q 436 20 455 34 q 336 -11 388 -11 l 263 -11 l 205 -11 q 104 18 145 -11 q 37 84 65 47 q 11 170 11 120 l 11 419 q 37 504 11 468 q 104 570 65 541 q 205 601 147 601 l 333 601 q 434 570 391 601 q 501 504 477 538 q 526 419 526 470 l 526 225 m 387 355 l 387 416 l 387 422 q 340 468 370 450 q 331 469 337 469 l 205 469 q 177 454 195 469 q 150 422 159 438 l 150 416 l 150 355 l 387 355 "},"Ã":{"x_min":-41.671875,"x_max":698.671875,"ha":807,"o":"m 698 -4 l 544 -4 l 484 170 l 172 170 l 111 -4 l -41 -4 l 244 820 l 412 820 l 698 -4 m 438 308 l 329 632 l 218 308 l 438 308 m 558 916 l 424 891 q 390 922 409 926 l 297 905 q 183 921 235 894 q 102 1018 130 948 l 234 1043 q 269 1012 249 1008 l 363 1030 q 476 1013 423 1041 q 558 916 530 986 "},"J":{"x_min":-41.671875,"x_max":470.875,"ha":656,"o":"m 470 191 q 447 112 470 147 q 400 59 433 91 q 348 15 368 26 q 263 -9 308 -9 l 162 -9 q -13 104 73 -9 q -41 156 -22 116 l 97 194 q 124 154 106 173 q 155 129 141 136 l 165 129 l 256 129 q 294 156 263 127 q 325 193 325 186 l 325 822 l 470 822 l 470 191 "},"»":{"x_min":20.828125,"x_max":684.78125,"ha":838,"o":"m 684 323 l 486 126 l 331 166 l 522 351 l 334 531 l 486 576 l 684 376 l 684 323 m 373 323 l 175 126 l 20 166 l 211 351 l 23 531 l 175 576 l 373 376 l 373 323 "},"©":{"x_min":20.828125,"x_max":854.234375,"ha":992,"o":"m 854 188 q 832 109 854 141 q 786 57 819 90 q 732 12 752 25 q 633 -12 688 -12 l 225 -12 q 141 12 181 -12 q 87 57 120 25 q 41 109 54 90 q 20 188 20 141 l 20 619 q 41 697 20 666 q 88 751 55 718 q 141 797 120 784 q 225 822 181 822 l 647 822 q 732 797 691 822 q 785 751 752 784 q 832 697 818 718 q 854 619 854 665 l 854 188 m 716 190 l 716 616 l 716 618 q 681 659 707 634 q 641 690 655 683 l 231 690 q 193 662 218 684 q 159 623 169 640 q 158 616 158 618 l 158 190 q 186 154 158 181 q 230 118 213 126 l 640 118 q 687 154 658 126 q 716 190 716 181 m 630 298 q 584 236 605 265 q 534 186 562 206 q 473 166 505 166 l 408 166 q 319 193 355 166 q 285 222 305 202 q 258 254 265 243 q 236 329 236 286 l 236 344 l 236 347 l 236 473 q 258 550 236 518 q 285 581 265 561 q 319 611 305 601 q 408 637 355 637 l 473 637 q 512 629 493 637 q 547 606 531 620 q 577 574 562 591 q 604 539 593 556 q 629 505 616 522 l 522 477 q 505 495 519 480 q 480 516 491 509 l 476 516 l 472 518 l 408 518 l 404 516 l 400 516 q 362 479 381 515 l 361 472 l 361 454 l 361 331 l 361 330 l 362 325 q 400 287 381 288 l 404 286 q 409 286 408 286 l 472 286 l 476 286 l 480 287 q 495 299 488 293 q 509 313 501 305 q 522 326 516 320 l 630 298 "},"˘":{"x_min":11.109375,"x_max":383.359375,"ha":683,"o":"m 383 909 q 374 875 381 907 q 355 830 366 843 q 291 776 331 801 q 216 755 258 755 l 179 755 q 104 776 137 755 q 37 832 61 804 q 19 875 26 844 q 11 909 12 905 l 104 909 q 120 888 108 905 q 144 859 133 872 q 163 843 155 847 q 176 841 165 841 l 219 841 q 231 843 230 841 q 287 897 265 859 l 290 909 l 383 909 "},"≥":{"x_min":4.171875,"x_max":522.265625,"ha":650,"o":"m 522 329 l 5 50 l 5 204 l 325 376 l 4 548 l 4 701 l 522 423 l 522 329 "},"ò":{"x_min":11.109375,"x_max":525.046875,"ha":679,"o":"m 525 170 q 501 86 525 118 q 434 18 476 48 q 333 -11 393 -11 l 202 -11 q 102 18 144 -11 q 65 51 87 29 q 34 86 43 73 q 11 170 11 118 l 11 419 q 34 504 11 472 q 102 570 56 537 q 202 601 145 601 l 333 601 q 434 570 391 601 q 501 504 477 538 q 525 419 525 472 l 525 170 m 386 163 l 386 173 l 386 415 l 386 419 q 384 423 384 422 q 338 468 368 451 q 331 469 336 469 l 204 469 q 197 468 200 469 q 150 423 165 448 l 148 415 l 148 173 l 148 163 q 195 120 148 148 q 204 119 201 119 l 331 119 q 340 122 334 119 q 368 143 352 129 q 386 163 384 156 m 454 711 l 304 670 l 65 888 l 259 888 l 454 711 "},"^":{"x_min":48.609375,"x_max":559.765625,"ha":603,"o":"m 559 719 l 504 695 l 391 695 l 311 768 l 298 768 l 218 695 l 104 695 l 48 719 l 244 888 l 363 888 l 559 719 "},"«":{"x_min":38.890625,"x_max":698.671875,"ha":839,"o":"m 698 166 l 544 126 l 345 323 l 345 376 l 544 576 l 697 531 l 508 351 l 698 166 m 391 166 l 237 126 l 38 323 l 38 376 l 237 576 l 388 531 l 201 351 l 391 166 "},"D":{"x_min":23.609375,"x_max":605.609375,"ha":781,"o":"m 605 195 q 584 116 605 147 q 538 65 572 97 q 483 20 504 33 q 400 -4 438 -4 l 23 -4 l 23 819 l 400 819 q 484 795 448 819 q 536 750 504 783 q 583 695 568 716 q 605 618 605 665 l 605 195 m 462 198 l 462 615 l 461 620 q 398 680 434 662 q 395 681 397 680 q 393 682 394 682 l 165 682 l 165 134 l 393 134 l 398 134 q 439 165 416 144 q 462 198 462 187 "},"ł":{"x_min":0,"x_max":0,"ha":374},"ÿ":{"x_min":0,"x_max":0,"ha":582},"Ł":{"x_min":0,"x_max":0,"ha":640},"í":{"x_min":-50,"x_max":338.921875,"ha":307,"o":"m 163 -4 l 25 -4 l 25 594 l 163 594 l 163 -4 m 338 888 l 101 670 l -50 711 l 145 888 l 338 888 "},"ˆ":{"x_min":-6.9375,"x_max":504.203125,"ha":589,"o":"m 504 719 l 448 695 l 336 695 l 255 768 l 241 768 l 162 695 l 48 695 l -6 719 l 188 888 l 306 888 l 504 719 "},"w":{"x_min":-48.609375,"x_max":832.015625,"ha":938,"o":"m 832 594 l 645 -4 l 504 -4 l 391 366 l 276 -4 l 134 -4 l -48 594 l 98 594 l 209 208 l 319 594 l 465 594 l 572 208 l 686 594 l 832 594 "},"$":{"x_min":-16.671875,"x_max":611.15625,"ha":765,"o":"m 611 187 q 590 106 611 137 q 543 54 577 86 q 488 9 509 22 q 405 -16 441 -16 l 363 -16 l 363 -127 l 226 -127 l 226 -16 l 187 -16 q 11 98 97 -16 q -16 151 -1 115 l 123 190 q 188 123 143 148 l 190 123 l 226 123 l 226 352 q 143 372 186 359 q 65 402 101 386 q 7 453 30 418 q -15 540 -15 488 l -15 615 q 5 695 -15 663 q 52 750 19 716 q 105 794 84 783 q 190 820 152 820 l 226 820 l 226 926 l 363 926 l 363 820 l 387 820 q 563 705 477 820 q 590 655 572 694 l 451 615 q 387 680 405 669 l 383 680 l 363 680 l 363 462 q 446 443 402 456 q 527 413 490 429 q 587 361 563 397 q 611 273 611 325 l 611 187 m 226 497 l 226 680 l 198 680 q 153 645 179 669 q 127 615 127 620 l 127 545 q 170 506 127 519 q 226 497 190 501 m 466 188 l 466 266 q 363 318 466 302 l 363 123 l 398 123 q 466 188 466 179 "},"∫":{"x_min":0,"x_max":0,"ha":695},"\\":{"x_min":-25,"x_max":584.765625,"ha":607,"o":"m 584 -4 l 423 -4 l -25 822 l 134 822 l 584 -4 "},"Ì":{"x_min":-72.234375,"x_max":316.6875,"ha":340,"o":"m 197 -4 l 52 -4 l 52 816 l 197 816 l 197 -4 m 316 900 l 166 859 l -72 1077 l 122 1077 l 316 900 "},"Ç":{"x_min":1.390625,"x_max":584.765625,"ha":758,"o":"m 584 154 q 555 101 572 125 q 380 -12 468 -12 l 208 -12 q 123 12 163 -12 q 70 57 102 25 q 23 109 37 90 q 1 188 1 143 l 1 616 q 23 694 1 661 q 70 748 37 715 q 123 793 104 782 q 208 818 168 818 l 380 818 q 555 704 468 818 l 584 655 l 444 615 q 380 679 398 668 l 376 679 l 213 679 l 208 677 q 147 618 170 655 q 145 604 145 613 l 145 190 q 169 158 145 179 q 211 126 193 137 l 213 126 l 376 126 l 380 126 q 418 161 391 131 l 444 191 l 584 154 m 404 -97 l 309 -270 l 153 -270 l 269 -56 l 404 -97 "},"’":{"x_min":55.5625,"x_max":204.1875,"ha":315,"o":"m 204 694 l 193 600 l 55 600 l 68 712 l 68 888 l 204 888 l 204 694 "},"-":{"x_min":11.109375,"x_max":504.203125,"ha":646,"o":"m 504 272 l 11 272 l 11 402 l 504 402 l 504 272 "},"Q":{"x_min":23.609375,"x_max":645.890625,"ha":813,"o":"m 645 191 q 623 112 645 145 q 576 58 609 91 q 523 13 543 25 q 472 -6 498 -1 q 473 -11 477 -8 l 526 -130 l 373 -130 l 326 -18 l 326 -11 l 255 -11 l 230 -11 q 145 13 186 -11 q 93 58 126 25 q 45 112 59 91 q 23 191 23 145 l 23 443 l 23 616 q 45 695 23 662 q 93 750 59 716 q 145 794 126 783 q 230 819 186 819 l 413 819 l 438 819 q 523 794 483 819 q 576 750 543 783 q 623 695 609 716 q 645 616 645 662 l 645 365 l 645 191 m 501 194 l 501 441 l 501 613 l 500 619 q 440 679 472 662 l 433 680 l 236 680 l 233 680 q 229 679 230 679 q 169 619 197 662 l 168 613 l 168 366 l 168 194 l 169 188 q 229 129 197 145 l 236 127 l 263 127 l 258 144 l 390 188 l 416 127 l 433 127 l 436 127 q 440 129 438 129 q 500 188 472 145 l 501 194 "},"M":{"x_min":23.609375,"x_max":734.78125,"ha":915,"o":"m 734 -4 l 594 -4 l 594 558 l 425 198 l 331 198 l 165 556 l 165 -4 l 23 -4 l 23 816 l 188 816 l 380 412 l 572 816 l 734 816 l 734 -4 "},"C":{"x_min":1.390625,"x_max":584.765625,"ha":758,"o":"m 584 154 q 555 101 572 125 q 380 -12 468 -12 l 208 -12 q 123 12 163 -12 q 70 57 102 25 q 23 109 37 90 q 1 188 1 143 l 1 616 q 23 694 1 661 q 70 748 37 715 q 123 793 104 782 q 208 818 168 818 l 380 818 q 555 704 468 818 l 584 655 l 444 615 q 380 679 398 668 l 376 679 l 213 679 l 208 677 q 147 618 170 655 q 145 604 145 613 l 145 190 q 169 158 145 179 q 211 126 193 137 l 213 126 l 376 126 l 380 126 q 418 161 391 131 l 444 191 l 584 154 "},"œ":{"x_min":11.109375,"x_max":941.734375,"ha":1093,"o":"m 941 152 q 841 18 900 58 q 741 -11 800 -11 l 595 -11 q 494 18 536 -11 q 472 37 480 29 q 448 18 469 34 q 347 -11 406 -11 l 202 -11 q 102 18 144 -11 q 65 51 87 29 q 34 86 43 73 q 11 170 11 118 l 11 419 q 34 504 11 472 q 102 570 56 537 q 202 601 145 601 l 347 601 q 448 570 405 601 q 472 551 469 554 q 494 570 480 559 q 595 601 537 601 l 738 601 q 840 570 797 601 q 907 504 883 538 q 932 419 932 470 l 932 238 l 540 238 l 540 173 l 541 166 q 568 134 551 150 q 595 119 586 119 l 744 119 q 752 122 747 119 q 812 195 782 138 l 941 152 m 793 369 l 793 416 l 793 422 q 745 468 776 450 q 737 469 743 469 l 595 469 q 568 454 586 469 q 540 422 550 438 l 540 416 l 540 369 l 793 369 m 400 163 l 400 173 l 400 415 l 400 419 q 398 423 398 422 q 352 468 381 451 q 345 469 350 469 l 204 469 q 197 468 200 469 q 150 423 165 448 l 148 415 l 148 173 l 148 163 q 195 120 148 148 q 204 119 201 119 l 345 119 q 354 122 348 119 q 382 143 366 129 q 400 163 398 156 "},"!":{"x_min":69.453125,"x_max":238.90625,"ha":297,"o":"m 222 218 l 83 218 l 83 825 l 222 825 l 222 218 m 238 -4 l 69 -4 l 69 159 l 238 159 l 238 -4 "},"ç":{"x_min":11.109375,"x_max":526.4375,"ha":670,"o":"m 526 123 q 486 67 516 100 q 437 20 456 34 q 337 -12 388 -12 l 266 -11 l 204 -11 q 102 18 144 -11 q 36 86 61 48 q 11 170 11 119 l 11 419 q 36 504 11 470 q 102 570 59 538 q 204 601 145 601 l 265 601 l 331 601 q 431 566 380 601 q 481 519 451 552 q 522 463 512 486 l 391 425 q 387 430 391 426 q 336 469 354 469 l 269 469 l 205 469 q 197 468 200 469 q 148 423 162 448 l 148 418 l 148 416 l 148 173 l 148 170 l 148 166 q 197 122 162 141 q 205 119 202 119 l 279 118 l 341 118 q 393 156 359 118 q 397 162 397 161 l 395 162 q 397 162 397 163 l 526 123 m 359 -101 l 264 -274 l 108 -274 l 224 -60 l 359 -101 "},"È":{"x_min":23.609375,"x_max":540.328125,"ha":717,"o":"m 540 -4 l 23 -4 l 23 816 l 540 816 l 540 677 l 166 677 l 166 475 l 540 475 l 540 336 l 166 336 l 166 134 l 540 134 l 540 -4 m 492 900 l 342 859 l 103 1077 l 297 1077 l 492 900 "},"ﬁ":{"x_min":0,"x_max":0,"ha":668},"{":{"x_min":11.109375,"x_max":333.359375,"ha":492,"o":"m 333 23 l 227 -77 l 134 11 q 34 116 55 87 q 11 197 11 152 l 11 622 q 34 701 11 666 q 126 801 59 737 l 227 898 l 331 798 q 279 750 329 795 q 193 667 229 704 q 156 619 156 630 l 156 200 q 227 118 156 186 q 333 23 298 51 "},"X":{"x_min":0,"x_max":634.765625,"ha":710,"o":"m 634 818 l 398 405 l 633 -4 l 473 -4 l 318 266 l 161 -4 l 1 -4 l 237 405 l 0 818 l 161 818 l 318 544 l 473 818 l 634 818 "},"ô":{"x_min":8.0625,"x_max":525.046875,"ha":679,"o":"m 525 170 q 501 86 525 118 q 434 18 476 48 q 333 -11 393 -11 l 202 -11 q 102 18 144 -11 q 65 51 87 29 q 34 86 43 73 q 11 170 11 118 l 11 419 q 34 504 11 472 q 102 570 56 537 q 202 601 145 601 l 333 601 q 434 570 391 601 q 501 504 477 538 q 525 419 525 472 l 525 170 m 386 163 l 386 173 l 386 415 l 386 419 q 384 423 384 422 q 338 468 368 451 q 331 469 336 469 l 204 469 q 197 468 200 469 q 150 423 165 448 l 148 415 l 148 173 l 148 163 q 195 120 148 148 q 204 119 201 119 l 331 119 q 340 122 334 119 q 368 143 352 129 q 386 163 384 156 m 519 719 l 463 695 l 351 695 l 270 768 l 256 768 l 177 695 l 63 695 l 8 719 l 203 888 l 321 888 l 519 719 "},"¼":{"x_min":47.21875,"x_max":811.171875,"ha":929,"o":"m 743 822 l 293 -4 l 137 -4 l 587 822 l 743 822 m 811 87 l 745 87 l 745 -2 l 625 -2 l 625 87 l 431 87 l 431 184 l 643 436 l 745 436 l 745 206 l 811 206 l 811 87 m 320 383 l 47 383 l 47 502 l 123 502 l 123 702 l 47 702 l 47 823 l 245 823 l 245 502 l 320 502 l 320 383 m 625 206 l 625 227 l 607 206 l 625 206 "},"#":{"x_min":-12.5,"x_max":611.15625,"ha":742,"o":"m 611 568 l 587 436 l 470 436 l 456 361 l 573 361 l 550 230 l 433 230 l 408 98 l 272 98 l 297 230 l 240 230 l 215 98 l 79 98 l 102 230 l -12 230 l 11 361 l 127 361 l 141 436 l 25 436 l 48 568 l 165 568 l 188 694 l 325 694 l 301 568 l 358 568 l 381 694 l 518 694 l 494 568 l 611 568 m 334 436 l 277 436 l 263 361 l 320 361 l 334 436 "},"Ê":{"x_min":15.0625,"x_max":540.328125,"ha":717,"o":"m 540 -4 l 23 -4 l 23 816 l 540 816 l 540 677 l 166 677 l 166 475 l 540 475 l 540 336 l 166 336 l 166 134 l 540 134 l 540 -4 m 526 908 l 470 884 l 358 884 l 277 957 l 263 957 l 184 884 l 70 884 l 15 908 l 210 1077 l 328 1077 l 526 908 "},")":{"x_min":66.671875,"x_max":380.59375,"ha":497,"o":"m 380 623 l 379 197 q 358 116 379 147 q 311 65 345 97 q 256 20 277 33 q 172 -4 212 -4 l 66 -4 l 66 134 l 166 134 l 168 134 q 209 168 183 143 q 234 198 234 193 l 234 620 q 210 652 234 627 q 169 686 186 676 l 168 686 l 166 687 l 66 687 l 66 825 l 172 825 q 256 801 219 825 q 309 757 276 790 q 356 702 343 723 q 380 623 380 666 "},"Å":{"x_min":-41.671875,"x_max":698.671875,"ha":807,"o":"m 520 1000 q 493 920 520 955 q 429 866 469 891 q 354 845 395 845 l 316 845 q 241 866 275 845 q 175 922 204 887 q 148 1000 148 952 l 148 1023 q 176 1101 148 1066 q 241 1157 200 1132 q 316 1177 279 1177 l 354 1177 q 429 1157 391 1177 q 493 1102 469 1132 q 520 1023 520 1065 l 520 1000 m 427 1000 l 427 1022 q 426 1030 427 1026 l 425 1036 q 396 1069 415 1050 q 366 1090 377 1088 l 355 1090 l 313 1090 l 301 1090 q 262 1059 283 1082 q 241 1022 241 1037 l 241 1000 q 263 963 241 986 q 301 933 284 940 q 313 932 302 932 l 356 932 q 369 933 366 932 q 425 987 404 952 l 426 991 q 427 1000 427 995 m 698 -4 l 544 -4 l 484 170 l 172 170 l 111 -4 l -41 -4 l 244 820 l 412 820 l 698 -4 m 438 308 l 329 632 l 218 308 l 438 308 "},"Δ":{"x_min":0,"x_max":0,"ha":861},"ø":{"x_min":11.109375,"x_max":541.703125,"ha":686,"o":"m 541 170 q 518 86 541 118 q 451 18 486 41 q 350 -12 408 -12 l 205 -12 q 184 -11 191 -12 l 166 -41 l 11 -41 l 63 55 q 13 170 13 108 l 13 419 q 37 504 13 472 q 105 572 68 547 q 205 602 148 602 l 350 602 q 357 602 352 602 q 365 601 362 601 l 377 625 l 533 625 l 487 540 q 541 419 541 483 l 541 170 m 402 162 l 402 173 l 402 386 l 256 118 l 348 118 q 356 120 351 118 q 385 141 369 127 q 402 162 401 155 m 308 479 l 206 479 q 194 476 200 479 q 143 426 158 456 q 141 416 141 423 l 141 186 l 141 177 l 308 479 "},"â":{"x_min":-13.890625,"x_max":519.484375,"ha":676,"o":"m 519 -5 l 381 -5 l 377 22 q 290 -12 329 -12 l 176 -12 q 76 18 119 -12 q 11 83 38 45 q -13 168 -13 118 l -13 193 q 11 277 -13 243 q 76 343 38 315 q 176 373 119 373 l 369 373 l 369 416 l 369 422 q 322 466 354 448 q 313 469 316 469 l 191 469 q 140 430 173 469 q 136 425 136 426 l 5 463 q 45 519 15 486 q 95 566 76 552 q 195 600 144 600 l 315 600 q 416 569 373 600 q 483 504 462 536 q 506 418 506 472 l 506 116 l 519 -5 m 370 175 l 370 243 l 177 243 q 172 241 175 243 l 169 241 q 123 194 140 223 l 123 191 l 123 169 l 123 166 q 169 120 138 140 q 177 118 175 118 l 286 118 q 328 140 295 118 q 370 175 361 163 m 504 719 l 448 695 l 336 695 l 255 768 l 241 768 l 162 695 l 48 695 l -6 719 l 188 888 l 306 888 l 504 719 "},"}":{"x_min":59.734375,"x_max":380.59375,"ha":496,"o":"m 380 197 q 358 116 380 150 q 258 11 336 83 q 162 -79 180 -61 l 59 23 q 165 118 94 51 q 236 200 236 186 l 236 619 q 200 667 236 630 q 113 750 163 704 q 61 798 63 795 l 162 897 l 202 861 q 266 802 244 823 q 358 701 331 740 q 380 622 380 668 l 380 197 "},"‰":{"x_min":25,"x_max":1350.109375,"ha":1340,"o":"m 1350 168 q 1327 90 1350 123 q 1296 55 1319 77 q 1259 23 1273 33 q 1205 4 1243 12 l 1169 -4 l 1141 -4 q 1051 23 1077 5 q 1014 55 1037 33 q 983 90 991 77 q 961 168 961 123 l 961 261 q 983 337 961 304 q 1014 373 991 350 q 1051 405 1037 397 q 1104 425 1066 416 l 1141 433 l 1169 433 q 1259 405 1234 423 q 1296 373 1273 397 q 1327 337 1319 350 q 1350 261 1350 304 l 1350 168 m 933 168 q 911 90 933 123 q 879 55 902 77 q 843 23 857 33 q 788 4 826 12 l 752 -4 l 725 -4 q 634 23 661 5 q 597 55 620 33 q 566 90 575 77 q 544 168 544 123 l 544 261 q 566 337 544 304 q 597 373 575 350 q 634 405 620 397 q 687 425 650 416 l 725 433 l 752 433 q 843 405 818 423 q 879 373 857 397 q 911 337 902 350 q 933 261 933 304 l 933 168 m 794 837 l 336 -4 l 176 -4 l 636 837 l 794 837 m 413 572 q 391 494 413 527 q 360 459 383 481 q 323 427 337 437 q 269 408 306 416 l 233 400 l 205 400 q 115 427 141 409 q 78 459 101 437 q 47 494 55 481 q 25 572 25 527 l 25 665 q 47 741 25 708 q 78 777 55 754 q 115 809 101 801 q 168 829 130 820 l 205 837 l 233 837 q 323 809 298 827 q 360 777 337 801 q 391 741 383 754 q 413 665 413 708 l 413 572 m 1220 165 l 1220 262 q 1194 288 1220 268 l 1168 308 l 1143 308 q 1090 262 1090 272 l 1090 165 q 1109 141 1090 158 q 1138 120 1127 125 l 1140 119 l 1141 119 l 1143 119 l 1168 119 l 1169 119 l 1170 119 l 1172 120 q 1202 141 1183 125 q 1220 165 1220 158 m 804 165 l 804 262 q 777 288 804 268 l 751 308 l 726 308 q 673 262 673 272 l 673 165 q 692 141 673 158 q 722 120 711 125 l 723 119 l 725 119 l 726 119 l 751 119 l 752 119 l 754 119 l 755 120 q 785 141 766 125 q 804 165 804 158 m 284 569 l 284 666 q 258 691 284 672 l 231 712 l 206 712 q 154 666 154 676 l 154 569 q 172 545 154 562 q 202 523 191 527 l 205 523 l 206 523 l 231 523 l 233 523 l 237 523 q 266 545 248 527 q 284 569 284 562 "},"Ä":{"x_min":-41.671875,"x_max":698.671875,"ha":807,"o":"m 698 -4 l 544 -4 l 484 170 l 172 170 l 111 -4 l -41 -4 l 244 820 l 412 820 l 698 -4 m 438 308 l 329 632 l 218 308 l 438 308 m 507 890 l 358 890 l 358 1047 l 507 1047 l 507 890 m 297 890 l 148 890 l 148 1047 l 297 1047 l 297 890 "},"¸":{"x_min":75,"x_max":326.421875,"ha":564,"o":"m 326 -61 l 231 -234 l 75 -234 l 191 -20 l 326 -61 "},"a":{"x_min":-13.890625,"x_max":519.484375,"ha":676,"o":"m 519 -5 l 381 -5 l 377 22 q 290 -12 329 -12 l 176 -12 q 76 18 119 -12 q 11 83 38 45 q -13 168 -13 118 l -13 193 q 11 277 -13 243 q 76 343 38 315 q 176 373 119 373 l 369 373 l 369 416 l 369 422 q 322 466 354 448 q 313 469 316 469 l 191 469 q 140 430 173 469 q 136 425 136 426 l 5 463 q 45 519 15 486 q 95 566 76 552 q 195 600 144 600 l 315 600 q 416 569 373 600 q 483 504 462 536 q 506 418 506 472 l 506 116 l 519 -5 m 370 175 l 370 243 l 177 243 q 172 241 175 243 l 169 241 q 123 194 140 223 l 123 191 l 123 169 l 123 166 q 169 120 138 140 q 177 118 175 118 l 286 118 q 328 140 295 118 q 370 175 361 163 "},"—":{"x_min":11.109375,"x_max":625.046875,"ha":760,"o":"m 625 272 l 11 272 l 11 401 l 625 401 l 625 272 "},"=":{"x_min":13.890625,"x_max":531.984375,"ha":682,"o":"m 531 395 l 13 395 l 13 522 l 531 522 l 531 395 m 531 184 l 13 184 l 13 309 l 531 309 l 531 184 "},"N":{"x_min":23.609375,"x_max":605.609375,"ha":786,"o":"m 605 -4 l 452 -4 l 165 541 l 165 -4 l 23 -4 l 23 815 l 179 815 l 462 265 l 462 815 l 605 815 l 605 -4 "},"˚":{"x_min":11.109375,"x_max":383.359375,"ha":683,"o":"m 383 823 q 355 744 383 776 q 291 690 331 715 q 216 669 258 669 l 179 669 q 104 690 137 669 q 37 745 61 718 q 11 823 11 777 l 11 847 q 38 925 11 893 q 104 980 63 954 q 179 1001 137 1001 l 216 1001 q 291 980 258 1001 q 355 926 331 955 q 383 847 383 894 l 383 823 m 290 823 l 290 845 q 287 859 290 857 q 260 892 280 872 q 229 913 240 912 l 218 913 l 176 913 l 163 913 q 125 883 147 905 q 104 845 104 861 l 104 823 q 125 787 104 809 q 163 757 147 765 q 176 755 165 755 l 219 755 q 231 757 230 755 q 287 811 265 773 q 290 823 290 813 "},"ú":{"x_min":5.5625,"x_max":531.984375,"ha":685,"o":"m 531 -5 l 393 -5 l 390 25 q 302 -11 340 -11 l 198 -11 q 97 18 138 -11 q 30 86 55 48 q 5 170 5 119 l 5 594 l 144 594 l 144 173 l 144 169 q 145 163 145 165 q 191 120 156 143 l 194 119 q 200 119 197 119 l 298 119 q 336 140 308 119 q 380 176 365 161 l 380 594 l 519 594 l 519 118 l 531 -5 m 458 888 l 220 670 l 69 711 l 265 888 l 458 888 "},"⁄":{"x_min":0,"x_max":0,"ha":900},"2":{"x_min":22.21875,"x_max":570.875,"ha":721,"o":"m 570 544 q 541 457 570 495 q 469 395 512 419 l 198 255 q 176 226 176 243 l 176 134 l 559 134 l 559 -4 l 31 -4 l 31 231 q 134 379 31 325 l 406 520 q 425 548 425 530 l 425 630 l 423 637 q 397 668 413 654 q 372 682 381 682 l 231 682 l 226 682 q 162 618 175 650 l 159 611 l 22 651 q 51 707 44 698 q 227 820 136 820 l 373 820 q 470 788 427 820 q 511 753 486 777 q 545 715 536 729 q 570 630 570 677 l 570 544 "},"ü":{"x_min":5.5625,"x_max":531.984375,"ha":685,"o":"m 531 -5 l 393 -5 l 390 25 q 302 -11 340 -11 l 198 -11 q 97 18 138 -11 q 30 86 55 48 q 5 170 5 119 l 5 594 l 144 594 l 144 173 l 144 169 q 145 163 145 165 q 191 120 156 143 l 194 119 q 200 119 197 119 l 298 119 q 336 140 308 119 q 380 176 365 161 l 380 594 l 519 594 l 519 118 l 531 -5 m 442 675 l 293 675 l 293 832 l 442 832 l 442 675 m 232 675 l 83 675 l 83 832 l 232 832 l 232 675 "},"¯":{"x_min":19.453125,"x_max":334.75,"ha":300,"o":"m 334 675 l 19 675 l 19 823 l 334 823 l 334 675 "},"Z":{"x_min":23.609375,"x_max":565.328125,"ha":703,"o":"m 565 -4 l 23 -4 l 23 112 l 383 677 l 23 677 l 23 816 l 565 816 l 565 697 l 209 134 l 565 134 l 565 -4 "},"u":{"x_min":5.5625,"x_max":531.984375,"ha":685,"o":"m 531 -5 l 393 -5 l 390 25 q 302 -11 340 -11 l 198 -11 q 97 18 138 -11 q 30 86 55 48 q 5 170 5 119 l 5 594 l 144 594 l 144 173 l 144 169 q 145 163 145 165 q 191 120 156 143 l 194 119 q 200 119 197 119 l 298 119 q 336 140 308 119 q 380 176 365 161 l 380 594 l 519 594 l 519 118 l 531 -5 "},"˜":{"x_min":30.5625,"x_max":486.15625,"ha":642,"o":"m 486 716 l 352 691 q 318 722 337 726 l 225 705 q 111 721 163 694 q 30 818 58 748 l 162 843 q 197 812 177 808 l 291 830 q 404 813 351 841 q 486 716 458 786 "},"Ó":{"x_min":25,"x_max":648.65625,"ha":811,"o":"m 648 191 q 626 112 648 145 q 579 58 612 91 q 526 13 545 25 q 441 -11 486 -11 l 256 -11 l 231 -11 q 147 13 187 -11 q 94 58 127 25 q 47 112 61 91 q 25 191 25 145 l 25 443 l 25 616 q 47 695 25 662 q 94 750 61 716 q 147 794 127 783 q 231 819 187 819 l 416 819 l 441 819 q 526 794 486 819 q 579 750 545 783 q 626 695 612 716 q 648 616 648 662 l 648 365 l 648 191 m 504 194 l 504 441 l 504 613 l 502 619 q 443 679 475 662 l 436 680 l 237 680 q 233 680 236 680 l 230 679 q 170 619 198 662 l 169 613 l 169 366 l 169 194 l 170 188 q 230 129 198 145 l 237 127 l 436 127 l 438 127 q 443 129 441 129 q 502 188 475 145 l 504 194 m 514 1077 l 276 859 l 125 900 l 321 1077 l 514 1077 "},"k":{"x_min":12.5,"x_max":555.59375,"ha":632,"o":"m 555 -4 l 365 -4 l 151 240 l 151 -4 l 12 -4 l 12 820 l 151 820 l 151 381 l 351 601 l 543 601 l 276 312 l 555 -4 "},"ˇ":{"x_min":-9.71875,"x_max":501.421875,"ha":589,"o":"m 501 872 l 305 702 l 187 702 l -9 872 l 45 895 l 158 895 l 238 823 l 252 823 l 331 895 l 445 895 l 501 872 "},"Ù":{"x_min":11.109375,"x_max":600.046875,"ha":770,"o":"m 600 191 q 577 112 600 145 q 530 58 563 91 q 477 13 497 25 q 393 -11 437 -11 l 243 -11 l 218 -11 q 133 13 173 -11 q 80 58 113 25 q 33 112 47 91 q 11 191 11 145 l 11 818 l 155 818 l 155 194 l 156 188 q 216 129 184 145 l 223 127 l 387 127 q 391 127 388 127 l 394 129 q 454 188 426 145 l 455 194 l 455 818 l 600 818 l 600 191 m 518 900 l 368 859 l 129 1077 l 323 1077 l 518 900 "},"Ÿ":{"x_min":0,"x_max":0,"ha":626},"¢":{"x_min":11.109375,"x_max":550.046875,"ha":640,"o":"m 550 150 q 515 83 537 119 q 450 15 486 40 q 350 -15 406 -15 l 340 -15 l 340 -130 l 201 -130 l 201 -15 q 102 15 144 -15 q 36 83 68 38 q 11 169 11 116 l 11 422 q 36 506 11 473 q 102 575 68 551 q 201 605 144 605 l 201 736 l 340 736 l 340 605 l 345 605 q 445 575 404 605 q 547 437 509 530 l 418 397 q 348 472 379 472 l 340 472 l 340 116 l 352 116 q 358 116 355 116 l 361 118 q 420 194 390 136 l 550 150 m 201 118 l 201 472 l 197 472 q 150 427 163 450 q 148 419 148 420 l 148 172 l 150 165 q 197 118 165 137 l 201 118 "},"ß":{"x_min":4.171875,"x_max":654.21875,"ha":793,"o":"m 654 166 q 627 81 654 118 q 565 18 601 43 q 466 -11 526 -8 l 437 -12 l 316 -12 q 216 20 265 -12 q 255 73 216 19 l 295 127 q 319 118 302 119 l 465 118 q 497 136 477 118 q 516 169 516 155 l 516 226 q 497 245 516 244 q 461 246 476 247 q 402 250 445 245 q 308 290 344 254 q 272 391 272 327 l 272 426 q 312 518 272 477 q 361 573 352 558 l 361 584 l 361 636 l 359 644 q 334 674 351 658 q 306 690 318 690 l 227 690 q 190 666 213 690 q 156 623 168 643 l 154 613 l 154 95 l 143 -4 l 4 -4 l 16 119 l 16 616 q 40 697 16 663 q 87 752 56 719 q 138 797 118 784 q 226 822 183 822 l 308 822 q 406 791 363 822 q 473 725 443 766 q 500 637 500 686 l 500 581 q 444 484 500 540 q 411 440 418 458 q 409 423 409 437 l 409 397 q 416 386 409 393 q 431 379 422 380 q 459 377 445 377 q 516 372 473 376 q 616 329 577 365 q 654 229 654 294 l 654 166 "},"é":{"x_min":11.109375,"x_max":526.4375,"ha":678,"o":"m 526 225 l 150 225 l 150 173 l 151 166 q 178 134 161 150 q 205 119 195 119 l 284 119 l 340 118 q 391 156 358 118 q 395 162 395 161 l 394 162 q 395 162 395 163 l 525 123 q 485 67 515 100 q 436 20 455 34 q 336 -11 388 -11 l 263 -11 l 205 -11 q 104 18 145 -11 q 37 84 65 47 q 11 170 11 120 l 11 419 q 37 504 11 468 q 104 570 65 541 q 205 601 147 601 l 333 601 q 434 570 391 601 q 501 504 477 538 q 526 419 526 470 l 526 225 m 387 355 l 387 416 l 387 422 q 340 468 370 450 q 331 469 337 469 l 205 469 q 177 454 195 469 q 150 422 159 438 l 150 416 l 150 355 l 387 355 m 458 888 l 220 670 l 69 711 l 265 888 l 458 888 "},"s":{"x_min":-9.71875,"x_max":516.703125,"ha":658,"o":"m 516 166 q 490 81 516 118 q 427 18 463 43 q 329 -11 388 -8 l 300 -12 l 179 -12 q 79 20 127 -12 q 29 67 59 34 q -9 123 0 100 l 119 162 l 120 162 l 119 162 q 123 156 119 161 q 175 118 155 119 l 181 118 l 327 118 q 359 136 340 118 q 379 169 379 155 l 379 204 q 359 223 379 222 q 259 231 341 225 q 131 241 176 237 q 37 282 73 245 q 1 383 1 319 l 1 426 q 26 511 1 476 q 187 604 91 604 l 223 604 l 320 604 q 420 572 373 604 q 470 525 440 558 q 511 469 501 491 l 380 430 q 376 436 380 431 q 325 475 343 475 l 191 475 q 173 472 180 473 q 140 437 154 462 q 138 423 138 426 l 138 388 q 145 378 138 384 q 161 370 151 372 q 256 361 176 369 q 379 350 337 354 q 478 307 440 343 q 516 206 516 272 l 516 166 "},"B":{"x_min":23.609375,"x_max":605.609375,"ha":770,"o":"m 605 183 q 581 100 605 136 q 547 61 572 86 q 508 26 522 36 q 409 -4 466 -4 l 23 -4 l 23 818 l 409 818 q 508 786 465 818 q 547 750 522 775 q 581 712 572 726 q 605 626 605 677 l 605 525 q 551 405 605 459 q 605 287 605 351 l 605 183 m 462 527 l 462 625 l 461 632 q 434 663 451 648 q 408 679 418 679 l 168 679 l 168 473 l 409 473 q 436 488 419 473 q 461 518 454 502 l 462 527 m 462 188 l 462 286 l 461 293 q 434 325 451 309 q 408 340 418 340 l 168 340 l 168 134 l 409 134 q 436 149 419 134 q 461 179 454 163 l 462 188 "},"…":{"x_min":88.890625,"x_max":762.5625,"ha":953,"o":"m 762 -4 l 591 -4 l 591 166 l 762 166 l 762 -4 m 509 -4 l 340 -4 l 340 166 l 509 166 l 509 -4 m 258 -4 l 88 -4 l 88 166 l 258 166 l 258 -4 "},"?":{"x_min":-4.171875,"x_max":562.546875,"ha":651,"o":"m 562 544 q 534 456 562 495 q 462 395 505 416 q 398 366 445 391 q 351 323 351 341 l 351 208 l 208 208 l 208 329 q 239 420 208 381 q 313 477 270 458 q 398 520 355 497 q 418 548 418 530 l 418 629 l 416 636 q 390 667 406 652 q 363 682 373 682 l 208 682 l 205 680 q 201 680 202 680 q 138 618 159 654 l 133 608 l -4 648 q 27 707 23 702 q 204 820 112 820 l 365 820 q 462 788 419 820 q 502 753 477 777 q 537 715 527 729 q 562 630 562 677 l 562 544 m 363 -4 l 195 -4 l 195 158 l 363 158 l 363 -4 "},"H":{"x_min":23.609375,"x_max":612.546875,"ha":793,"o":"m 612 -4 l 468 -4 l 468 336 l 168 336 l 168 -4 l 23 -4 l 23 818 l 168 818 l 168 475 l 468 475 l 468 818 l 612 818 l 612 -4 "},"î":{"x_min":-180.5625,"x_max":330.578125,"ha":307,"o":"m 162 -4 l 23 -4 l 23 594 l 162 594 l 162 -4 m 330 719 l 275 695 l 162 695 l 81 768 l 68 768 l -11 695 l -125 695 l -180 719 l 15 888 l 133 888 l 330 719 "},"c":{"x_min":11.109375,"x_max":526.4375,"ha":670,"o":"m 526 123 q 486 67 516 100 q 437 20 456 34 q 337 -12 388 -12 l 266 -11 l 204 -11 q 102 18 144 -11 q 36 86 61 48 q 11 170 11 119 l 11 419 q 36 504 11 470 q 102 570 59 538 q 204 601 145 601 l 265 601 l 331 601 q 431 566 380 601 q 481 519 451 552 q 522 463 512 486 l 391 425 q 387 430 391 426 q 336 469 354 469 l 269 469 l 205 469 q 197 468 200 469 q 148 423 162 448 l 148 418 l 148 416 l 148 173 l 148 170 l 148 166 q 197 122 162 141 q 205 119 202 119 l 279 118 l 341 118 q 393 156 359 118 q 397 162 397 161 l 395 162 q 397 162 397 163 l 526 123 "},"¶":{"x_min":15.28125,"x_max":612.546875,"ha":732,"o":"m 612 -4 l 469 -4 l 469 336 l 418 336 l 418 -4 l 280 -4 l 280 336 l 213 336 q 115 365 156 336 q 75 400 100 376 q 40 438 50 425 q 15 522 15 476 l 15 626 q 40 711 15 673 q 75 750 50 725 q 115 786 100 775 q 213 816 156 816 l 612 816 l 612 -4 m 469 473 l 469 677 l 418 677 l 418 473 l 469 473 m 280 473 l 280 677 l 215 677 q 211 677 213 677 q 206 676 208 676 q 162 633 175 655 l 161 625 l 161 525 l 162 518 q 215 473 200 473 l 280 473 "},"−":{"x_min":11.109375,"x_max":504.203125,"ha":653,"o":"m 504 272 l 11 272 l 11 402 l 504 402 l 504 272 "},"≠":{"x_min":0,"x_max":0,"ha":1111},"•":{"x_min":52.78125,"x_max":438.921875,"ha":615,"o":"m 438 331 q 408 245 438 283 q 344 190 375 209 q 263 168 309 168 l 229 168 q 148 190 183 168 q 80 247 105 218 q 52 331 52 280 l 52 354 q 148 494 52 430 q 229 516 181 516 l 263 516 q 344 494 311 516 q 438 354 438 431 l 438 331 "},"¥":{"x_min":-29.171875,"x_max":648.65625,"ha":675,"o":"m 648 816 l 445 484 l 559 484 l 559 351 l 380 351 l 380 318 l 559 318 l 559 187 l 380 187 l 380 -4 l 237 -4 l 237 187 l 51 187 l 51 318 l 237 318 l 237 351 l 51 351 l 51 484 l 168 484 l -29 816 l 130 816 l 309 512 l 488 816 l 648 816 "},"(":{"x_min":11.109375,"x_max":323.640625,"ha":485,"o":"m 323 -4 l 218 -4 q 134 20 179 -4 q 79 65 113 33 q 33 116 45 97 q 12 197 12 147 l 11 623 q 33 702 11 672 q 80 757 47 723 q 133 801 113 790 q 218 825 170 825 l 323 825 l 323 687 l 225 687 l 222 687 q 188 659 209 680 q 155 620 166 638 l 156 620 l 156 198 q 180 166 156 187 q 222 134 204 145 l 225 134 l 323 134 l 323 -4 "},"U":{"x_min":11.109375,"x_max":600.046875,"ha":770,"o":"m 600 191 q 577 112 600 145 q 530 58 563 91 q 477 13 497 25 q 393 -11 437 -11 l 243 -11 l 218 -11 q 133 13 173 -11 q 80 58 113 25 q 33 112 47 91 q 11 191 11 145 l 11 818 l 155 818 l 155 194 l 156 188 q 216 129 184 145 l 223 127 l 387 127 q 391 127 388 127 l 394 129 q 454 188 426 145 l 455 194 l 455 818 l 600 818 l 600 191 "},"◊":{"x_min":77.78125,"x_max":583.375,"ha":778,"o":"m 583 405 q 551 312 583 354 q 473 244 523 277 q 386 220 436 220 l 276 220 q 187 244 225 220 q 108 312 134 279 q 77 405 77 351 l 77 436 q 108 529 77 490 q 187 597 134 562 q 276 622 227 622 l 386 622 q 473 597 433 622 q 551 529 523 563 q 583 436 583 487 l 583 405 m 447 404 l 447 406 l 447 434 l 447 438 q 424 466 447 447 q 390 491 401 486 l 388 491 l 387 491 l 275 491 l 272 491 l 270 491 q 213 438 213 452 l 213 434 l 213 406 l 213 404 q 237 375 213 394 q 270 350 261 355 l 272 350 q 275 351 273 351 l 387 351 l 388 350 l 390 350 q 447 404 447 390 "},"Ñ":{"x_min":23.609375,"x_max":605.609375,"ha":786,"o":"m 605 -4 l 452 -4 l 165 541 l 165 -4 l 23 -4 l 23 815 l 179 815 l 462 265 l 462 815 l 605 815 l 605 -4 m 562 912 l 428 887 q 394 918 413 922 l 301 901 q 187 917 239 890 q 106 1014 134 944 l 238 1039 q 273 1008 253 1004 l 367 1026 q 480 1009 427 1037 q 562 912 534 982 "},"F":{"x_min":23.609375,"x_max":538.9375,"ha":686,"o":"m 538 677 l 166 677 l 166 475 l 519 475 l 519 336 l 166 336 l 166 -4 l 23 -4 l 23 816 l 538 816 l 538 677 "},":":{"x_min":59.734375,"x_max":230.578125,"ha":378,"o":"m 230 345 l 59 345 l 59 520 l 230 520 l 230 345 m 230 -4 l 59 -4 l 59 170 l 230 170 l 230 -4 "},"Û":{"x_min":11.109375,"x_max":600.046875,"ha":770,"o":"m 600 191 q 577 112 600 145 q 530 58 563 91 q 477 13 497 25 q 393 -11 437 -11 l 243 -11 l 218 -11 q 133 13 173 -11 q 80 58 113 25 q 33 112 47 91 q 11 191 11 145 l 11 818 l 155 818 l 155 194 l 156 188 q 216 129 184 145 l 223 127 l 387 127 q 391 127 388 127 l 394 129 q 454 188 426 145 l 455 194 l 455 818 l 600 818 l 600 191 m 561 908 l 505 884 l 393 884 l 312 957 l 298 957 l 219 884 l 105 884 l 50 908 l 245 1077 l 363 1077 l 561 908 "},"*":{"x_min":-12.5,"x_max":573.65625,"ha":643,"o":"m 573 777 l 409 622 l 572 475 l 437 434 l 341 526 l 341 411 l 216 411 l 216 526 l 123 434 l -12 475 l 145 625 l -12 777 l 122 815 l 216 727 l 216 840 l 341 840 l 341 726 l 437 815 l 573 777 "},"†":{"x_min":38.890625,"x_max":359.75,"ha":463,"o":"m 359 466 l 266 466 l 266 150 l 130 150 l 130 466 l 38 466 l 38 595 l 130 595 l 130 807 l 266 807 l 266 595 l 359 595 l 359 466 "},"°":{"x_min":11.109375,"x_max":383.359375,"ha":519,"o":"m 383 802 q 355 723 383 755 q 291 669 331 694 q 216 648 258 648 l 179 648 q 104 669 137 648 q 37 725 61 697 q 11 802 11 757 l 11 826 q 38 904 11 872 q 104 959 63 933 q 179 980 137 980 l 216 980 q 291 959 258 980 q 355 905 331 934 q 383 826 383 873 l 383 802 m 290 802 l 290 825 q 287 838 290 836 q 260 871 280 851 q 229 893 240 891 l 218 893 l 176 893 l 163 893 q 125 862 147 884 q 104 825 104 840 l 104 802 q 125 766 104 788 q 163 736 147 744 q 176 734 165 734 l 219 734 q 231 736 230 734 q 287 790 265 752 q 290 802 290 793 "},"V":{"x_min":-16.671875,"x_max":709.78125,"ha":786,"o":"m 709 818 l 430 -4 l 262 -4 l -16 818 l 136 818 l 347 181 l 556 818 l 709 818 "},"å":{"x_min":-13.890625,"x_max":519.484375,"ha":676,"o":"m 440 830 q 412 751 440 786 q 348 697 388 722 q 273 676 311 676 l 236 676 q 161 697 198 676 q 94 752 118 725 q 68 830 68 784 l 68 854 q 95 932 68 900 q 161 987 126 968 q 236 1008 194 1008 l 273 1008 q 348 987 315 1008 q 381 963 359 980 q 412 933 402 945 q 440 854 440 901 l 440 830 m 347 830 l 347 852 q 344 866 347 863 q 317 900 337 879 q 286 920 297 920 l 275 920 l 233 920 l 220 920 q 181 891 202 912 q 161 852 161 869 l 161 830 q 182 794 161 816 q 220 763 204 772 l 225 763 q 233 762 229 762 l 276 762 q 284 763 280 762 l 288 763 q 344 818 322 780 q 347 830 347 823 m 519 -5 l 381 -5 l 377 22 q 290 -12 329 -12 l 176 -12 q 76 18 119 -12 q 11 83 38 45 q -13 168 -13 118 l -13 193 q 11 277 -13 243 q 76 343 38 315 q 176 373 119 373 l 369 373 l 369 416 l 369 422 q 322 466 354 448 q 313 469 316 469 l 191 469 q 140 430 173 469 q 136 425 136 426 l 5 463 q 45 519 15 486 q 95 566 76 552 q 195 600 144 600 l 315 600 q 416 569 373 600 q 483 504 462 536 q 506 418 506 472 l 506 116 l 519 -5 m 370 175 l 370 243 l 177 243 q 172 241 175 243 l 169 241 q 123 194 140 223 l 123 191 l 123 169 l 123 166 q 169 120 138 140 q 177 118 175 118 l 286 118 q 328 140 295 118 q 370 175 361 163 "}," ":{"x_min":0,"x_max":0,"ha":278},"0":{"x_min":16.671875,"x_max":583.375,"ha":721,"o":"m 583 190 q 561 111 583 144 q 513 56 547 90 q 461 12 480 23 q 376 -12 420 -12 l 248 -12 l 223 -12 q 138 12 179 -12 q 86 56 119 23 q 38 111 52 90 q 16 190 16 144 l 16 443 l 16 619 q 38 698 16 665 q 86 752 52 719 q 138 797 119 786 q 223 822 179 822 l 351 822 l 376 822 q 461 797 420 822 q 513 752 480 786 q 561 698 547 719 q 583 619 583 665 l 583 365 l 583 190 m 438 193 l 438 441 l 438 616 l 437 622 q 377 682 409 665 l 370 683 l 229 683 q 225 683 227 683 l 222 682 q 162 622 190 665 l 161 616 l 161 366 l 161 193 l 162 187 q 222 127 190 144 l 229 126 l 370 126 q 375 127 372 126 l 377 127 q 437 187 409 144 l 438 193 "},"”":{"x_min":55.5625,"x_max":411.140625,"ha":542,"o":"m 411 694 l 400 600 l 262 600 l 275 712 l 275 888 l 411 888 l 411 694 m 204 694 l 193 600 l 55 600 l 68 712 l 68 888 l 204 888 l 204 694 "},"¾":{"x_min":-20.828125,"x_max":818.125,"ha":929,"o":"m 750 822 l 300 -4 l 144 -4 l 594 822 l 750 822 m 818 87 l 752 87 l 752 -2 l 632 -2 l 632 87 l 438 87 l 438 184 l 650 436 l 752 436 l 752 206 l 818 206 l 818 87 m 391 530 q 365 459 391 490 q 308 411 350 441 q 222 383 269 383 l 163 383 q 111 395 138 383 q 65 418 83 406 q 19 453 48 430 q -20 484 -9 476 l 72 569 q 106 543 73 568 q 156 509 138 519 q 158 511 158 509 l 161 511 l 219 511 q 261 537 238 511 q 256 541 261 538 q 254 542 255 541 q 251 543 252 543 l 120 543 l 120 663 l 251 663 q 261 670 259 666 q 219 698 233 698 l 177 698 l 161 698 q 72 637 151 694 l -20 725 q 65 788 9 752 q 163 823 120 823 l 222 823 q 267 816 245 823 q 301 800 288 808 q 337 773 313 791 q 365 749 355 759 q 383 720 375 738 q 391 679 391 702 l 391 658 q 377 602 391 626 q 391 550 391 579 l 391 530 m 632 206 l 632 227 l 613 206 l 632 206 "},"@":{"x_min":11.109375,"x_max":672.28125,"ha":774,"o":"m 672 168 l 541 168 l 537 183 q 487 162 512 162 l 406 162 q 301 193 344 162 q 234 261 256 225 q 211 344 211 297 l 211 415 q 234 498 211 463 q 301 565 255 531 q 402 595 344 595 l 516 595 l 516 616 l 518 616 q 483 656 506 634 q 447 684 459 677 l 445 686 l 225 686 q 147 613 170 651 l 148 613 l 148 191 q 175 155 148 180 q 220 122 202 130 l 223 120 l 548 120 l 570 -11 l 216 -11 q 133 13 177 -11 q 79 58 112 26 q 33 109 47 90 q 11 190 11 143 l 11 616 q 31 695 11 665 q 79 748 45 715 q 133 794 112 782 q 216 818 175 818 l 447 818 q 630 695 547 818 q 654 616 654 661 l 654 294 l 672 168 m 516 334 l 516 462 l 401 462 q 398 463 400 462 q 395 463 397 463 q 367 441 384 456 q 348 419 350 426 l 348 412 l 348 345 q 347 344 348 344 l 345 344 l 345 343 q 370 313 352 331 q 397 294 388 294 l 401 294 l 465 294 l 468 295 l 468 294 q 516 334 487 305 "},"ö":{"x_min":11.109375,"x_max":525.046875,"ha":679,"o":"m 525 170 q 501 86 525 118 q 434 18 476 48 q 333 -11 393 -11 l 202 -11 q 102 18 144 -11 q 65 51 87 29 q 34 86 43 73 q 11 170 11 118 l 11 419 q 34 504 11 472 q 102 570 56 537 q 202 601 145 601 l 333 601 q 434 570 391 601 q 501 504 477 538 q 525 419 525 472 l 525 170 m 386 163 l 386 173 l 386 415 l 386 419 q 384 423 384 422 q 338 468 368 451 q 331 469 336 469 l 204 469 q 197 468 200 469 q 150 423 165 448 l 148 415 l 148 173 l 148 163 q 195 120 148 148 q 204 119 201 119 l 331 119 q 340 122 334 119 q 368 143 352 129 q 386 163 384 156 m 439 675 l 290 675 l 290 832 l 439 832 l 439 675 m 229 675 l 80 675 l 80 832 l 229 832 l 229 675 "},"i":{"x_min":19.453125,"x_max":168.0625,"ha":307,"o":"m 168 675 l 19 675 l 19 823 l 168 823 l 168 675 m 162 -4 l 23 -4 l 23 602 l 162 602 l 162 -4 "},"≤":{"x_min":4.171875,"x_max":522.265625,"ha":650,"o":"m 522 548 l 200 376 l 520 204 l 520 50 l 4 329 l 4 423 l 522 701 l 522 548 "},"Õ":{"x_min":25,"x_max":648.65625,"ha":811,"o":"m 648 191 q 626 112 648 145 q 579 58 612 91 q 526 13 545 25 q 441 -11 486 -11 l 256 -11 l 231 -11 q 147 13 187 -11 q 94 58 127 25 q 47 112 61 91 q 25 191 25 145 l 25 443 l 25 616 q 47 695 25 662 q 94 750 61 716 q 147 794 127 783 q 231 819 187 819 l 416 819 l 441 819 q 526 794 486 819 q 579 750 545 783 q 626 695 612 716 q 648 616 648 662 l 648 365 l 648 191 m 504 194 l 504 441 l 504 613 l 502 619 q 443 679 475 662 l 436 680 l 237 680 q 233 680 236 680 l 230 679 q 170 619 198 662 l 169 613 l 169 366 l 169 194 l 170 188 q 230 129 198 145 l 237 127 l 436 127 l 438 127 q 443 129 441 129 q 502 188 475 145 l 504 194 m 582 909 l 448 884 q 414 915 433 919 l 321 898 q 207 914 259 887 q 126 1011 154 941 l 258 1036 q 293 1005 273 1001 l 387 1023 q 500 1006 447 1034 q 582 909 554 979 "},"]":{"x_min":66.671875,"x_max":337.53125,"ha":458,"o":"m 337 -4 l 66 -4 l 66 126 l 193 126 l 193 686 l 66 686 l 66 816 l 337 816 l 337 -4 "},"m":{"x_min":8.328125,"x_max":841.734375,"ha":1001,"o":"m 841 -4 l 702 -4 l 702 416 l 702 419 q 701 425 701 423 q 658 468 688 448 l 654 469 q 647 469 650 469 l 583 469 q 501 413 552 469 l 501 -4 l 500 -4 l 362 -4 l 361 -4 l 361 416 l 361 419 q 359 425 359 423 q 316 468 347 448 l 312 469 q 305 469 308 469 l 241 469 q 208 459 225 469 q 181 436 191 448 q 159 413 170 425 l 159 -4 l 20 -4 l 20 472 l 8 595 l 147 595 l 150 566 q 237 601 198 601 l 306 601 q 408 570 365 601 q 448 534 425 558 l 479 558 q 579 601 536 601 l 648 601 q 750 570 707 601 q 816 504 793 538 q 841 419 841 470 l 841 -4 "},"8":{"x_min":16.671875,"x_max":568.09375,"ha":721,"o":"m 568 176 q 543 91 568 129 q 508 52 533 77 q 468 16 483 27 q 372 -13 426 -13 l 356 -13 l 227 -13 l 212 -13 q 116 16 158 -13 q 77 52 102 27 q 41 91 51 77 q 16 176 16 129 l 16 291 q 72 409 16 354 q 16 526 16 465 l 16 632 q 41 716 16 679 q 77 755 51 730 q 116 791 102 780 q 212 822 158 822 l 227 822 l 356 822 l 372 822 q 468 791 426 822 q 508 755 483 780 q 543 716 533 730 q 568 632 568 679 l 568 526 q 512 409 568 465 q 568 291 568 354 l 568 176 m 423 529 l 423 630 l 422 637 q 396 668 412 654 q 370 683 380 683 l 352 683 l 231 683 l 213 683 q 188 668 204 683 q 162 637 172 654 q 161 630 161 632 l 161 529 l 162 522 q 186 492 170 506 q 212 477 202 477 l 213 477 l 370 477 l 372 477 q 397 492 381 477 q 422 522 413 506 l 423 529 m 423 177 l 423 288 l 422 295 q 397 325 413 311 q 372 340 381 340 l 370 340 l 213 340 l 212 340 q 186 325 202 340 q 162 295 170 311 l 161 288 l 161 177 l 162 170 q 188 139 172 154 q 213 125 204 125 l 231 125 l 352 125 l 370 125 q 396 139 380 125 q 422 170 412 154 q 423 177 423 176 "},"ž":{"x_min":0,"x_max":0,"ha":695},"R":{"x_min":23.609375,"x_max":654.21875,"ha":799,"o":"m 654 -4 l 484 -4 l 300 322 l 168 322 l 168 -4 l 23 -4 l 23 816 l 409 816 q 508 786 466 816 q 547 750 522 776 q 581 711 572 725 q 607 626 607 673 l 607 508 q 581 425 607 462 q 547 386 572 411 q 508 351 522 361 q 458 331 488 337 l 654 -4 m 461 511 l 461 625 l 461 632 q 415 676 437 673 q 411 677 413 676 q 408 677 409 677 l 166 677 l 166 459 l 408 459 q 434 475 418 459 q 459 505 451 490 q 461 511 461 509 "},"á":{"x_min":-13.890625,"x_max":519.484375,"ha":676,"o":"m 519 -5 l 381 -5 l 377 22 q 290 -12 329 -12 l 176 -12 q 76 18 119 -12 q 11 83 38 45 q -13 168 -13 118 l -13 193 q 11 277 -13 243 q 76 343 38 315 q 176 373 119 373 l 369 373 l 369 416 l 369 422 q 322 466 354 448 q 313 469 316 469 l 191 469 q 140 430 173 469 q 136 425 136 426 l 5 463 q 45 519 15 486 q 95 566 76 552 q 195 600 144 600 l 315 600 q 416 569 373 600 q 483 504 462 536 q 506 418 506 472 l 506 116 l 519 -5 m 370 175 l 370 243 l 177 243 q 172 241 175 243 l 169 241 q 123 194 140 223 l 123 191 l 123 169 l 123 166 q 169 120 138 140 q 177 118 175 118 l 286 118 q 328 140 295 118 q 370 175 361 163 m 458 888 l 220 670 l 69 711 l 265 888 l 458 888 "},"×":{"x_min":0,"x_max":0,"ha":833},"o":{"x_min":11.109375,"x_max":525.046875,"ha":679,"o":"m 525 170 q 501 86 525 118 q 434 18 476 48 q 333 -11 393 -11 l 202 -11 q 102 18 144 -11 q 65 51 87 29 q 34 86 43 73 q 11 170 11 118 l 11 419 q 34 504 11 472 q 102 570 56 537 q 202 601 145 601 l 333 601 q 434 570 391 601 q 501 504 477 538 q 525 419 525 472 l 525 170 m 386 163 l 386 173 l 386 415 l 386 419 q 384 423 384 422 q 338 468 368 451 q 331 469 336 469 l 204 469 q 197 468 200 469 q 150 423 165 448 l 148 415 l 148 173 l 148 163 q 195 120 148 148 q 204 119 201 119 l 331 119 q 340 122 334 119 q 368 143 352 129 q 386 163 384 156 "},"5":{"x_min":22.21875,"x_max":579.21875,"ha":721,"o":"m 579 177 q 554 93 579 130 q 519 53 544 79 q 480 18 494 27 q 381 -12 438 -12 l 230 -12 q 54 100 140 -12 q 22 159 37 122 l 162 197 l 165 191 q 194 152 175 172 q 227 126 213 133 l 234 126 l 380 126 q 384 127 381 126 q 388 127 387 127 q 434 172 420 148 q 436 179 436 177 l 436 322 l 434 329 q 388 375 419 355 q 384 375 387 375 q 380 376 381 376 l 56 376 l 56 818 l 538 818 l 538 679 l 198 679 l 198 513 l 381 513 q 480 481 437 513 q 520 447 495 470 q 554 409 544 423 q 579 325 579 372 l 579 177 "},"õ":{"x_min":11.109375,"x_max":525.046875,"ha":679,"o":"m 525 170 q 501 86 525 118 q 434 18 476 48 q 333 -11 393 -11 l 202 -11 q 102 18 144 -11 q 65 51 87 29 q 34 86 43 73 q 11 170 11 118 l 11 419 q 34 504 11 472 q 102 570 56 537 q 202 601 145 601 l 333 601 q 434 570 391 601 q 501 504 477 538 q 525 419 525 472 l 525 170 m 386 163 l 386 173 l 386 415 l 386 419 q 384 423 384 422 q 338 468 368 451 q 331 469 336 469 l 204 469 q 197 468 200 469 q 150 423 165 448 l 148 415 l 148 173 l 148 163 q 195 120 148 148 q 204 119 201 119 l 331 119 q 340 122 334 119 q 368 143 352 129 q 386 163 384 156 m 486 716 l 352 691 q 318 722 337 726 l 225 705 q 111 721 163 694 q 30 818 58 748 l 162 843 q 197 812 177 808 l 291 830 q 404 813 351 841 q 486 716 458 786 "},"7":{"x_min":11.109375,"x_max":568.09375,"ha":721,"o":"m 568 704 l 219 -4 l 55 -2 l 393 677 l 11 677 l 11 816 l 568 816 l 568 704 "},"K":{"x_min":23.609375,"x_max":636.15625,"ha":725,"o":"m 636 -4 l 448 -4 l 168 313 l 168 -4 l 23 -4 l 23 816 l 168 816 l 168 498 l 447 816 l 634 816 l 272 405 l 636 -4 "},",":{"x_min":-1.390625,"x_max":256.96875,"ha":428,"o":"m 256 104 l 154 -118 l -1 -118 l 122 145 l 256 104 "},"d":{"x_min":11.109375,"x_max":534.765625,"ha":695,"o":"m 534 -4 l 395 -4 l 393 26 q 302 -11 344 -11 l 202 -11 q 102 19 144 -11 q 36 87 61 50 q 11 173 11 123 l 11 425 q 36 511 11 476 q 102 579 68 555 q 202 608 144 608 l 302 608 q 384 576 338 608 l 384 822 l 523 822 l 523 119 l 534 -4 m 384 183 l 384 415 q 339 454 369 431 q 298 476 309 476 l 204 476 q 198 475 201 476 l 195 475 q 151 429 168 456 q 150 422 150 423 l 150 176 l 151 168 q 195 123 166 141 q 204 120 201 120 l 298 120 q 339 143 309 120 q 384 183 369 166 "},"¨":{"x_min":66.671875,"x_max":425.03125,"ha":504,"o":"m 425 675 l 276 675 l 276 832 l 425 832 l 425 675 m 215 675 l 66 675 l 66 832 l 215 832 l 215 675 "},"Ô":{"x_min":25,"x_max":648.65625,"ha":811,"o":"m 648 191 q 626 112 648 145 q 579 58 612 91 q 526 13 545 25 q 441 -11 486 -11 l 256 -11 l 231 -11 q 147 13 187 -11 q 94 58 127 25 q 47 112 61 91 q 25 191 25 145 l 25 443 l 25 616 q 47 695 25 662 q 94 750 61 716 q 147 794 127 783 q 231 819 187 819 l 416 819 l 441 819 q 526 794 486 819 q 579 750 545 783 q 626 695 612 716 q 648 616 648 662 l 648 365 l 648 191 m 504 194 l 504 441 l 504 613 l 502 619 q 443 679 475 662 l 436 680 l 237 680 q 233 680 236 680 l 230 679 q 170 619 198 662 l 169 613 l 169 366 l 169 194 l 170 188 q 230 129 198 145 l 237 127 l 436 127 l 438 127 q 443 129 441 129 q 502 188 475 145 l 504 194 m 580 908 l 524 884 l 412 884 l 331 957 l 317 957 l 238 884 l 124 884 l 69 908 l 264 1077 l 382 1077 l 580 908 "},"E":{"x_min":23.609375,"x_max":540.328125,"ha":717,"o":"m 540 -4 l 23 -4 l 23 816 l 540 816 l 540 677 l 166 677 l 166 475 l 540 475 l 540 336 l 166 336 l 166 134 l 540 134 l 540 -4 "},"Y":{"x_min":-22.21875,"x_max":641.71875,"ha":706,"o":"m 641 816 l 380 366 l 380 -4 l 237 -4 l 237 366 l -22 816 l 137 816 l 309 518 l 481 816 l 641 816 "},"\"":{"x_min":55.5625,"x_max":411.140625,"ha":556,"o":"m 411 694 l 400 600 l 262 600 l 275 712 l 275 888 l 411 888 l 411 694 m 204 694 l 193 600 l 55 600 l 68 712 l 68 888 l 204 888 l 204 694 "},"‹":{"x_min":55.5625,"x_max":408.359375,"ha":556,"o":"m 408 166 l 254 126 l 55 323 l 55 376 l 254 576 l 406 531 l 218 351 l 408 166 "},"˙":{"x_min":19.453125,"x_max":168.0625,"ha":300,"o":"m 168 675 l 19 675 l 19 823 l 168 823 l 168 675 "},"ê":{"x_min":11.109375,"x_max":533.203125,"ha":678,"o":"m 526 225 l 150 225 l 150 173 l 151 166 q 178 134 161 150 q 205 119 195 119 l 284 119 l 340 118 q 391 156 358 118 q 395 162 395 161 l 394 162 q 395 162 395 163 l 525 123 q 485 67 515 100 q 436 20 455 34 q 336 -11 388 -11 l 263 -11 l 205 -11 q 104 18 145 -11 q 37 84 65 47 q 11 170 11 120 l 11 419 q 37 504 11 468 q 104 570 65 541 q 205 601 147 601 l 333 601 q 434 570 391 601 q 501 504 477 538 q 526 419 526 470 l 526 225 m 387 355 l 387 416 l 387 422 q 340 468 370 450 q 331 469 337 469 l 205 469 q 177 454 195 469 q 150 422 159 438 l 150 416 l 150 355 l 387 355 m 533 719 l 477 695 l 365 695 l 284 768 l 270 768 l 191 695 l 77 695 l 22 719 l 217 888 l 335 888 l 533 719 "},"Ï":{"x_min":-70.84375,"x_max":287.515625,"ha":340,"o":"m 200 -4 l 55 -4 l 55 816 l 200 816 l 200 -4 m 287 855 l 138 855 l 138 1012 l 287 1012 l 287 855 m 77 855 l -70 855 l -70 1012 l 77 1012 l 77 855 "},"„":{"x_min":55.5625,"x_max":411.140625,"ha":542,"o":"m 411 694 l 400 600 l 262 600 l 275 712 l 275 888 l 411 888 l 411 694 m 204 694 l 193 600 l 55 600 l 68 712 l 68 888 l 204 888 l 204 694 "},"Â":{"x_min":-41.671875,"x_max":698.671875,"ha":807,"o":"m 698 -4 l 544 -4 l 484 170 l 172 170 l 111 -4 l -41 -4 l 244 820 l 412 820 l 698 -4 m 438 308 l 329 632 l 218 308 l 438 308 m 582 905 l 526 881 l 414 881 l 333 954 l 319 954 l 240 881 l 126 881 l 71 905 l 266 1074 l 384 1074 l 582 905 "},"Í":{"x_min":-19.453125,"x_max":369.46875,"ha":340,"o":"m 233 -4 l 88 -4 l 88 816 l 233 816 l 233 -4 m 369 1077 l 131 859 l -19 900 l 176 1077 l 369 1077 "},"´":{"x_min":69.453125,"x_max":458.375,"ha":515,"o":"m 458 888 l 220 670 l 69 711 l 265 888 l 458 888 "},"ì":{"x_min":-137.515625,"x_max":251.40625,"ha":307,"o":"m 163 -4 l 25 -4 l 25 594 l 163 594 l 163 -4 m 251 711 l 101 670 l -137 888 l 56 888 l 251 711 "},"±":{"x_min":0,"x_max":0,"ha":695},"Ú":{"x_min":11.109375,"x_max":600.046875,"ha":796,"o":"m 600 191 q 577 112 600 145 q 530 58 563 91 q 477 13 497 25 q 393 -11 437 -11 l 243 -11 l 218 -11 q 133 13 173 -11 q 80 58 113 25 q 33 112 47 91 q 11 191 11 145 l 11 818 l 155 818 l 155 194 l 156 188 q 216 129 184 145 l 223 127 l 387 127 q 391 127 388 127 l 394 129 q 454 188 426 145 l 455 194 l 455 818 l 600 818 l 600 191 m 500 1077 l 262 859 l 111 900 l 307 1077 l 500 1077 "},"|":{"x_min":16.671875,"x_max":152.796875,"ha":268,"o":"m 152 -127 l 16 -127 l 16 926 l 152 926 l 152 -127 "},"§":{"x_min":4.171875,"x_max":579.21875,"ha":708,"o":"m 579 661 l 450 619 q 433 647 443 632 q 408 679 423 663 q 380 694 393 694 l 206 694 q 175 677 194 694 q 156 648 155 659 q 158 634 158 641 q 162 621 158 627 q 175 615 166 615 l 351 605 q 461 579 425 602 q 537 506 498 555 q 569 409 569 463 l 569 397 q 520 281 569 330 q 566 177 566 238 l 566 159 q 541 80 566 118 q 479 18 519 48 q 379 -13 436 -13 l 206 -13 q 41 84 115 -13 q 4 151 26 104 l 136 195 q 204 118 177 118 l 379 118 q 405 130 390 118 q 427 155 420 143 l 427 163 l 427 180 q 422 189 427 184 q 409 194 416 194 l 226 202 q 137 229 175 205 q 58 300 87 262 q 27 397 27 340 l 27 409 q 72 520 27 472 q 18 645 26 561 q 44 734 13 691 q 205 827 111 827 l 379 827 q 477 797 436 827 q 579 661 543 748 m 433 394 l 433 409 l 431 416 q 379 469 408 454 l 376 469 l 372 469 l 219 475 l 212 475 q 166 422 187 461 l 165 412 l 165 398 l 166 388 q 185 363 166 386 q 212 338 204 340 l 375 330 l 381 330 q 415 363 397 340 q 433 394 433 386 "},"Ý":{"x_min":0,"x_max":0,"ha":626},"b":{"x_min":9.71875,"x_max":536.15625,"ha":688,"o":"m 536 173 q 511 87 536 123 q 444 19 486 50 q 344 -11 402 -11 l 241 -11 q 151 26 200 -11 l 148 -4 l 9 -4 l 20 119 l 20 822 l 159 822 l 159 576 q 241 608 205 608 l 344 608 q 444 579 402 608 q 511 511 479 555 q 536 425 536 476 l 536 173 m 397 176 l 397 422 l 395 429 q 351 475 379 456 l 348 475 q 343 476 345 476 l 245 476 q 204 454 234 476 q 159 415 175 431 l 159 183 q 204 143 175 166 q 245 120 234 120 l 343 120 q 351 123 345 120 q 395 168 380 141 q 397 176 397 175 "},"q":{"x_min":11.109375,"x_max":537.546875,"ha":697,"o":"m 537 590 l 525 466 l 525 -236 l 386 -236 l 386 9 q 304 -22 340 -22 l 202 -22 q 102 6 144 -22 q 36 75 68 30 q 11 161 11 109 l 11 412 q 36 498 11 462 q 102 566 61 536 q 202 597 144 597 l 304 597 q 394 559 345 597 l 398 590 l 537 590 m 386 170 l 386 402 q 341 442 370 419 q 300 465 311 465 l 204 465 q 195 462 201 465 q 151 418 166 444 q 150 409 150 411 l 150 163 l 151 156 q 195 111 168 129 l 198 111 q 204 109 201 109 l 300 109 q 341 131 311 109 q 386 170 370 154 "},"Ω":{"x_min":0,"x_max":0,"ha":695},"Ö":{"x_min":25,"x_max":648.65625,"ha":811,"o":"m 648 191 q 626 112 648 145 q 579 58 612 91 q 526 13 545 25 q 441 -11 486 -11 l 256 -11 l 231 -11 q 147 13 187 -11 q 94 58 127 25 q 47 112 61 91 q 25 191 25 145 l 25 443 l 25 616 q 47 695 25 662 q 94 750 61 716 q 147 794 127 783 q 231 819 187 819 l 416 819 l 441 819 q 526 794 486 819 q 579 750 545 783 q 626 695 612 716 q 648 616 648 662 l 648 365 l 648 191 m 504 194 l 504 441 l 504 613 l 502 619 q 443 679 475 662 l 436 680 l 237 680 q 233 680 236 680 l 230 679 q 170 619 198 662 l 169 613 l 169 366 l 169 194 l 170 188 q 230 129 198 145 l 237 127 l 436 127 l 438 127 q 443 129 441 129 q 502 188 475 145 l 504 194 m 521 888 l 372 888 l 372 1045 l 521 1045 l 521 888 m 311 888 l 162 888 l 162 1045 l 311 1045 l 311 888 "},"ﬂ":{"x_min":0,"x_max":0,"ha":668},"z":{"x_min":13.890625,"x_max":502.8125,"ha":638,"o":"m 502 -4 l 25 -4 l 25 108 l 301 461 l 13 461 l 13 594 l 488 594 l 488 480 l 211 129 l 502 129 l 502 -4 "},"™":{"x_min":23.609375,"x_max":716.71875,"ha":872,"o":"m 716 411 l 590 409 l 590 594 l 556 536 l 473 536 l 450 581 l 450 409 l 322 409 l 322 700 l 252 700 l 252 409 l 125 409 l 125 698 l 23 698 l 23 819 l 322 819 l 343 819 l 463 819 l 516 719 l 575 819 l 716 819 l 716 411 "},"ã":{"x_min":-13.890625,"x_max":519.484375,"ha":676,"o":"m 519 -5 l 381 -5 l 377 22 q 290 -12 329 -12 l 176 -12 q 76 18 119 -12 q 11 83 38 45 q -13 168 -13 118 l -13 193 q 11 277 -13 243 q 76 343 38 315 q 176 373 119 373 l 369 373 l 369 416 l 369 422 q 322 466 354 448 q 313 469 316 469 l 191 469 q 140 430 173 469 q 136 425 136 426 l 5 463 q 45 519 15 486 q 95 566 76 552 q 195 600 144 600 l 315 600 q 416 569 373 600 q 483 504 462 536 q 506 418 506 472 l 506 116 l 519 -5 m 370 175 l 370 243 l 177 243 q 172 241 175 243 l 169 241 q 123 194 140 223 l 123 191 l 123 169 l 123 166 q 169 120 138 140 q 177 118 175 118 l 286 118 q 328 140 295 118 q 370 175 361 163 m 478 716 l 344 691 q 310 722 329 726 l 217 705 q 103 721 155 694 q 22 818 50 748 l 154 843 q 189 812 169 808 l 283 830 q 396 813 343 841 q 478 716 450 786 "},"æ":{"x_min":-16.671875,"x_max":925.078125,"ha":1076,"o":"m 925 152 q 825 18 883 58 q 725 -11 783 -11 l 579 -11 q 477 18 519 -11 q 430 62 468 25 l 388 22 q 301 -12 340 -12 l 173 -12 q 73 18 116 -12 q 8 83 36 45 q -16 168 -16 118 l -16 193 q 8 277 -16 243 q 73 343 36 315 q 173 373 116 373 l 380 373 l 380 416 l 380 422 q 333 466 365 448 q 325 469 327 469 l 188 469 q 137 430 170 469 l 112 397 l -8 434 q 38 516 9 477 q 93 570 68 554 q 193 600 136 600 l 326 600 q 427 569 384 600 q 452 548 448 552 q 477 570 463 559 q 579 601 520 601 l 722 601 q 823 570 780 601 q 890 504 866 538 q 915 419 915 470 l 915 238 l 523 238 l 523 173 l 525 166 q 552 134 534 150 q 579 119 569 119 l 727 119 q 736 122 730 119 q 795 195 765 138 l 925 152 m 776 369 l 776 416 l 776 422 q 729 468 759 450 q 720 469 726 469 l 579 469 q 551 454 569 469 q 523 422 533 438 l 523 416 l 523 369 l 776 369 m 381 175 l 381 243 l 175 243 q 169 241 172 243 l 166 241 q 120 194 137 223 l 120 191 l 120 169 l 120 166 q 166 120 136 140 q 175 118 172 118 l 297 118 q 339 140 306 118 q 381 175 372 163 "},"®":{"x_min":20.828125,"x_max":854.234375,"ha":992,"o":"m 854 188 q 832 109 854 141 q 786 57 819 90 q 732 12 752 25 q 633 -12 688 -12 l 225 -12 q 141 12 181 -12 q 87 57 120 25 q 41 109 54 90 q 20 188 20 141 l 20 619 q 41 697 20 666 q 88 751 55 718 q 141 797 120 784 q 225 822 181 822 l 647 822 q 732 797 691 822 q 785 751 752 784 q 832 697 818 718 q 854 619 854 665 l 854 188 m 716 190 l 716 616 l 716 618 q 681 659 707 634 q 641 690 655 683 l 231 690 q 193 662 218 684 q 159 623 169 640 q 158 616 158 618 l 158 190 q 186 154 158 181 q 230 118 213 126 l 640 118 q 687 154 658 126 q 716 190 716 181 m 618 423 q 604 380 615 397 q 526 313 581 348 l 615 165 l 475 165 l 400 294 l 381 294 l 381 165 l 255 165 l 255 636 l 450 636 q 537 609 502 636 q 573 578 551 600 q 604 544 595 556 q 618 476 618 523 l 618 462 l 618 423 m 502 455 l 502 456 l 502 470 l 502 472 q 456 515 491 495 q 453 516 455 515 q 450 516 451 516 l 381 516 l 381 415 l 450 415 q 477 429 459 415 q 502 455 495 444 "},"É":{"x_min":23.609375,"x_max":540.328125,"ha":717,"o":"m 540 -4 l 23 -4 l 23 816 l 540 816 l 540 677 l 166 677 l 166 475 l 540 475 l 540 336 l 166 336 l 166 134 l 540 134 l 540 -4 m 509 1076 l 271 858 l 120 899 l 316 1076 l 509 1076 "},"~":{"x_min":30.5625,"x_max":486.15625,"ha":642,"o":"m 486 716 l 352 691 q 318 722 337 726 l 225 705 q 111 721 163 694 q 30 818 58 748 l 162 843 q 197 812 177 808 l 291 830 q 404 813 351 841 q 486 716 458 786 "},"³":{"x_min":-20.828125,"x_max":391.703125,"ha":435,"o":"m 391 540 q 365 472 391 502 q 308 425 347 452 q 222 400 273 400 l 163 400 q 65 433 118 400 q -20 495 12 466 l 72 579 q 111 551 83 572 q 156 522 140 530 l 161 522 l 219 522 q 261 545 237 522 q 256 551 261 550 q 251 552 252 551 l 120 552 l 120 669 l 251 669 l 259 673 q 261 675 261 673 l 261 677 q 241 693 255 684 q 219 701 227 701 l 161 701 l 158 701 q 108 668 140 691 q 72 643 76 645 l -20 727 q 65 789 11 755 q 163 823 120 823 l 222 823 q 336 776 270 823 q 391 683 391 736 l 391 665 q 377 609 391 633 q 391 558 391 587 l 391 540 "},"¡":{"x_min":27.78125,"x_max":184.734375,"ha":318,"o":"m 184 657 l 27 657 l 27 811 l 184 811 l 184 657 m 177 -4 l 37 -4 l 37 591 l 177 591 l 177 -4 "},"[":{"x_min":11.109375,"x_max":281.96875,"ha":431,"o":"m 281 -4 l 11 -4 l 11 816 l 281 816 l 281 686 l 155 686 l 155 126 l 281 126 l 281 -4 "},"L":{"x_min":23.609375,"x_max":531.984375,"ha":667,"o":"m 531 -4 l 23 -4 l 23 816 l 166 816 l 166 134 l 531 134 l 531 -4 "}," ":{"x_min":0,"x_max":0,"ha":375},"∑":{"x_min":0,"x_max":0,"ha":695},"%":{"x_min":25,"x_max":940.359375,"ha":1010,"o":"m 940 168 q 918 90 940 123 q 886 55 909 77 q 850 23 863 33 q 793 4 833 12 l 752 -4 l 725 -4 q 641 23 668 5 q 604 55 627 33 q 573 90 581 77 q 551 168 551 123 l 551 261 q 573 337 551 304 q 604 373 581 350 q 641 405 627 397 q 694 425 657 416 l 732 433 l 759 433 q 850 405 825 423 q 886 373 863 397 q 918 337 909 350 q 940 261 940 304 l 940 168 m 794 837 l 336 -4 l 176 -4 l 636 837 l 794 837 m 413 572 q 391 494 413 527 q 360 459 383 481 q 323 427 337 437 q 269 408 306 416 l 233 400 l 205 400 q 115 427 141 409 q 78 459 101 437 q 47 494 55 481 q 25 572 25 527 l 25 665 q 47 741 25 708 q 78 777 55 754 q 115 809 101 801 q 168 829 130 820 l 205 837 l 233 837 q 323 809 298 827 q 360 777 337 801 q 391 741 383 754 q 413 665 413 708 l 413 572 m 811 165 l 811 262 q 784 288 811 268 l 758 308 l 733 308 q 680 262 680 272 l 680 165 q 699 141 680 158 q 729 120 718 125 q 730 120 730 120 q 732 119 730 119 l 733 119 l 758 119 l 759 119 q 761 120 761 119 q 762 120 761 120 q 792 141 773 125 q 811 165 811 158 m 284 569 l 284 666 q 258 691 284 672 l 231 712 l 206 712 q 154 666 154 676 l 154 569 q 172 545 154 562 q 202 523 191 527 l 205 523 l 206 523 l 231 523 l 233 523 l 237 523 q 266 545 248 527 q 284 569 284 562 "},"P":{"x_min":23.609375,"x_max":607,"ha":746,"o":"m 607 506 q 581 423 607 461 q 547 385 572 409 q 506 350 522 361 q 409 320 465 320 l 166 320 l 166 -4 l 23 -4 l 23 816 l 409 816 q 506 786 465 816 q 547 750 522 775 q 581 711 572 725 q 607 626 607 673 l 607 506 m 461 509 l 461 625 l 461 632 q 415 676 437 673 q 411 677 413 676 q 408 677 409 677 l 166 677 l 166 458 l 408 458 q 434 473 418 458 q 459 504 451 488 q 461 509 461 508 "},"∏":{"x_min":0,"x_max":0,"ha":695},"À":{"x_min":-41.671875,"x_max":698.671875,"ha":807,"o":"m 698 -4 l 544 -4 l 484 170 l 172 170 l 111 -4 l -41 -4 l 244 820 l 412 820 l 698 -4 m 438 308 l 329 632 l 218 308 l 438 308 m 522 899 l 372 858 l 133 1076 l 327 1076 l 522 899 "},"_":{"x_min":4.171875,"x_max":544.484375,"ha":642,"o":"m 544 -118 l 4 -118 l 4 12 l 544 12 l 544 -118 "},"ñ":{"x_min":8.328125,"x_max":534.765625,"ha":695,"o":"m 534 -4 l 395 -4 l 395 416 l 394 419 q 394 425 394 423 q 351 468 381 448 l 347 469 q 340 469 343 469 l 243 469 q 161 413 212 469 l 161 -4 l 22 -4 l 22 472 l 8 595 l 147 595 l 151 566 q 238 601 200 601 l 341 601 q 443 570 400 601 q 509 504 486 538 q 534 419 534 470 l 534 -4 m 517 716 l 383 691 q 349 722 368 726 l 256 705 q 142 721 194 694 q 61 818 89 748 l 193 843 q 228 812 208 808 l 322 830 q 435 813 382 841 q 517 716 489 786 "},"+":{"x_min":33.34375,"x_max":562.546875,"ha":721,"o":"m 562 273 l 365 273 l 365 80 l 230 80 l 230 273 l 33 273 l 33 404 l 230 404 l 230 600 l 365 600 l 365 404 l 562 404 l 562 273 "},"‚":{"x_min":55.5625,"x_max":204.1875,"ha":315,"o":"m 204 694 l 193 600 l 55 600 l 68 712 l 68 888 l 204 888 l 204 694 "},"½":{"x_min":47.21875,"x_max":918.796875,"ha":1006,"o":"m 918 298 q 900 209 922 240 q 823 162 879 179 l 669 116 q 665 113 666 115 q 802 122 688 120 l 916 125 l 916 0 l 533 0 l 533 113 q 632 236 533 206 l 773 279 l 787 286 l 788 286 l 788 290 q 748 312 769 312 l 690 312 l 684 312 q 598 252 680 311 l 508 338 q 594 403 540 368 q 693 438 648 438 l 751 438 q 836 409 798 438 q 876 379 863 390 q 902 346 888 368 q 918 298 916 325 m 747 822 l 297 -4 l 141 -4 l 591 822 l 747 822 m 320 383 l 47 383 l 47 502 l 123 502 l 123 702 l 47 702 l 47 823 l 245 823 l 245 502 l 320 502 l 320 383 "},"Æ":{"x_min":-41.671875,"x_max":704.21875,"ha":878,"o":"m 704 -2 l 315 -4 l 315 -2 l 304 -2 l 304 169 l 172 169 l 112 -4 l -41 -4 l 244 818 l 420 818 l 704 816 l 704 677 l 447 677 l 447 475 l 704 475 l 704 336 l 447 336 l 447 136 l 704 136 l 704 -2 m 302 308 l 302 555 l 218 308 l 302 308 "},"Ë":{"x_min":23.609375,"x_max":540.328125,"ha":717,"o":"m 540 -4 l 23 -4 l 23 816 l 540 816 l 540 677 l 166 677 l 166 475 l 540 475 l 540 336 l 166 336 l 166 134 l 540 134 l 540 -4 m 458 889 l 309 889 l 309 1046 l 458 1046 l 458 889 m 248 889 l 99 889 l 99 1046 l 248 1046 l 248 889 "},"'":{"x_min":55.5625,"x_max":204.1875,"ha":329,"o":"m 204 694 l 193 600 l 55 600 l 68 712 l 68 888 l 204 888 l 204 694 "},"Š":{"x_min":0,"x_max":0,"ha":695},"ª":{"x_min":25,"x_max":402.8125,"ha":531,"o":"m 402 418 l 280 418 l 277 427 q 236 416 258 416 l 172 416 q 104 437 137 416 q 45 494 70 459 q 25 566 25 525 l 25 669 q 45 741 25 711 q 102 797 69 773 q 193 823 141 823 l 383 823 l 383 525 l 402 418 m 256 559 l 256 705 l 191 705 l 191 707 q 163 685 177 698 q 150 668 150 672 l 150 569 q 163 551 150 563 q 191 530 176 538 l 191 531 l 216 531 q 256 559 229 531 "},"Œ":{"x_min":25,"x_max":733.390625,"ha":910,"o":"m 733 -4 l 225 -4 q 200 2 216 -1 q 170 11 183 6 q 147 20 158 15 q 92 65 126 33 q 45 116 58 97 q 25 197 25 147 l 25 622 q 45 693 25 662 q 93 745 59 712 q 147 791 126 779 q 170 801 158 797 q 200 809 183 805 q 225 816 216 813 l 733 816 l 733 677 l 490 677 l 490 475 l 733 475 l 733 336 l 490 336 l 490 134 l 733 134 l 733 -4 m 336 134 l 336 676 l 237 676 l 225 675 q 186 650 205 666 q 168 619 168 633 l 168 198 q 188 168 168 193 q 223 136 209 144 q 230 135 225 136 q 237 134 236 134 l 336 134 "},"˛":{"x_min":123.625,"x_max":375.03125,"ha":564,"o":"m 375 -234 l 218 -234 l 123 -61 l 258 -20 l 375 -234 "},"ð":{"x_min":0,"x_max":0,"ha":645},"T":{"x_min":-13.890625,"x_max":576.4375,"ha":707,"o":"m 576 680 l 351 680 l 351 -4 l 209 -4 l 209 680 l -13 680 l -13 816 l 576 816 l 576 680 "},"š":{"x_min":0,"x_max":0,"ha":695},"j":{"x_min":-123.625,"x_max":191.6875,"ha":319,"o":"m 191 675 l 43 675 l 43 823 l 191 823 l 191 675 m 184 -44 q 159 -131 184 -95 q 91 -200 129 -175 q -6 -229 50 -229 l -123 -229 l -123 -95 l -8 -95 l 0 -94 q 43 -48 29 -75 l 44 -41 l 44 601 l 184 601 l 184 -44 "},"1":{"x_min":111.125,"x_max":391.703125,"ha":721,"o":"m 391 -1 l 390 -1 l 390 -4 l 250 -4 l 250 -1 l 248 -1 l 248 677 l 111 677 l 111 818 l 391 818 l 391 -1 "},"›":{"x_min":20.828125,"x_max":373.640625,"ha":556,"o":"m 373 323 l 175 126 l 20 166 l 211 351 l 23 531 l 175 576 l 373 376 l 373 323 "},"ı":{"x_min":23.609375,"x_max":162.515625,"ha":307,"o":"m 162 -4 l 23 -4 l 23 594 l 162 594 l 162 -4 "},"ä":{"x_min":-13.890625,"x_max":519.484375,"ha":676,"o":"m 519 -5 l 381 -5 l 377 22 q 290 -12 329 -12 l 176 -12 q 76 18 119 -12 q 11 83 38 45 q -13 168 -13 118 l -13 193 q 11 277 -13 243 q 76 343 38 315 q 176 373 119 373 l 369 373 l 369 416 l 369 422 q 322 466 354 448 q 313 469 316 469 l 191 469 q 140 430 173 469 q 136 425 136 426 l 5 463 q 45 519 15 486 q 95 566 76 552 q 195 600 144 600 l 315 600 q 416 569 373 600 q 483 504 462 536 q 506 418 506 472 l 506 116 l 519 -5 m 370 175 l 370 243 l 177 243 q 172 241 175 243 l 169 241 q 123 194 140 223 l 123 191 l 123 169 l 123 166 q 169 120 138 140 q 177 118 175 118 l 286 118 q 328 140 295 118 q 370 175 361 163 m 439 675 l 290 675 l 290 832 l 439 832 l 439 675 m 229 675 l 80 675 l 80 832 l 229 832 l 229 675 "},"<":{"x_min":-37.5,"x_max":851.453125,"ha":996,"o":"m 851 340 l 220 340 l 581 -4 l 390 -4 l -37 406 l 390 820 l 581 820 l 216 475 l 851 475 l 851 340 "},"£":{"x_min":13.890625,"x_max":668.109375,"ha":824,"o":"m 668 172 q 636 109 658 137 q 459 -2 552 -2 l 68 -2 l 68 240 l 13 240 l 13 370 l 68 370 l 68 401 l 13 401 l 13 534 l 68 534 l 68 616 q 88 694 68 665 q 136 748 102 715 q 188 793 169 782 q 273 818 233 818 l 472 818 l 472 679 l 279 679 l 272 677 q 213 618 238 658 l 213 608 l 212 534 l 505 534 l 505 401 l 212 401 l 212 370 l 505 370 l 505 240 l 212 240 l 212 136 l 455 136 l 459 136 l 463 137 q 525 200 497 158 l 530 212 l 668 172 "},"¹":{"x_min":-2.78125,"x_max":270.859375,"ha":435,"o":"m 270 400 l -2 400 l -2 513 l 73 513 l 73 707 l -2 707 l -2 823 l 195 823 l 195 513 l 270 513 l 270 400 "},"t":{"x_min":-37.5,"x_max":366.703125,"ha":482,"o":"m 366 459 l 194 459 l 194 181 l 195 173 q 220 143 204 159 q 250 127 237 127 l 365 127 l 365 -4 l 248 -4 q 148 25 190 -4 q 81 93 113 48 q 55 180 55 131 l 55 459 l -37 459 l -37 593 l 55 593 l 55 823 l 194 823 l 194 593 l 366 593 l 366 459 "},"¬":{"x_min":0,"x_max":0,"ha":833},"ù":{"x_min":5.5625,"x_max":531.984375,"ha":685,"o":"m 531 -5 l 393 -5 l 390 25 q 302 -11 340 -11 l 198 -11 q 97 18 138 -11 q 30 86 55 48 q 5 170 5 119 l 5 594 l 144 594 l 144 173 l 144 169 q 145 163 145 165 q 191 120 156 143 l 194 119 q 200 119 197 119 l 298 119 q 336 140 308 119 q 380 176 365 161 l 380 594 l 519 594 l 519 118 l 531 -5 m 454 711 l 304 670 l 65 888 l 259 888 l 454 711 "},"W":{"x_min":6.9375,"x_max":980.640625,"ha":1074,"o":"m 980 818 l 788 -4 l 625 -4 l 493 544 l 359 -4 l 195 -4 l 6 818 l 155 818 l 279 240 l 415 818 l 569 818 l 705 240 l 827 818 l 980 818 "},"ï":{"x_min":-104.171875,"x_max":254.1875,"ha":307,"o":"m 162 -4 l 23 -4 l 23 594 l 162 594 l 162 -4 m 254 675 l 105 675 l 105 832 l 254 832 l 254 675 m 44 675 l -104 675 l -104 832 l 44 832 l 44 675 "},">":{"x_min":-16.671875,"x_max":872.296875,"ha":996,"o":"m 872 406 l 443 -4 l 252 -4 l 612 340 l -16 340 l -16 475 l 616 475 l 251 820 l 443 820 l 872 406 "},"v":{"x_min":-41.671875,"x_max":520.875,"ha":626,"o":"m 520 594 l 315 -4 l 168 -4 l -41 594 l 106 594 l 240 191 l 373 594 l 520 594 "},"û":{"x_min":5.5625,"x_max":531.984375,"ha":685,"o":"m 531 -5 l 393 -5 l 390 25 q 302 -11 340 -11 l 198 -11 q 97 18 138 -11 q 30 86 55 48 q 5 170 5 119 l 5 594 l 144 594 l 144 173 l 144 169 q 145 163 145 165 q 191 120 156 143 l 194 119 q 200 119 197 119 l 298 119 q 336 140 308 119 q 380 176 365 161 l 380 594 l 519 594 l 519 118 l 531 -5 m 521 719 l 465 695 l 353 695 l 272 768 l 258 768 l 179 695 l 65 695 l 10 719 l 205 888 l 323 888 l 521 719 "},"Ò":{"x_min":25,"x_max":648.65625,"ha":811,"o":"m 648 191 q 626 112 648 145 q 579 58 612 91 q 526 13 545 25 q 441 -11 486 -11 l 256 -11 l 231 -11 q 147 13 187 -11 q 94 58 127 25 q 47 112 61 91 q 25 191 25 145 l 25 443 l 25 616 q 47 695 25 662 q 94 750 61 716 q 147 794 127 783 q 231 819 187 819 l 416 819 l 441 819 q 526 794 486 819 q 579 750 545 783 q 626 695 612 716 q 648 616 648 662 l 648 365 l 648 191 m 504 194 l 504 441 l 504 613 l 502 619 q 443 679 475 662 l 436 680 l 237 680 q 233 680 236 680 l 230 679 q 170 619 198 662 l 169 613 l 169 366 l 169 194 l 170 188 q 230 129 198 145 l 237 127 l 436 127 l 438 127 q 443 129 441 129 q 502 188 475 145 l 504 194 m 544 900 l 394 859 l 155 1077 l 349 1077 l 544 900 "},"&":{"x_min":16.671875,"x_max":620.890625,"ha":779,"o":"m 620 255 l 581 255 l 581 183 q 556 100 581 136 q 522 61 547 86 q 483 26 497 36 q 383 -4 441 -4 l 212 -4 q 115 26 156 -4 q 75 61 100 36 q 41 100 51 86 q 16 183 16 136 l 16 291 q 72 409 16 354 q 16 529 16 462 l 16 630 q 41 716 16 679 q 75 754 51 730 q 115 788 100 777 q 212 822 161 822 l 295 822 q 470 707 384 822 q 504 645 473 702 l 363 608 l 358 623 q 361 618 361 618 q 297 682 352 647 l 294 683 l 291 683 l 213 683 q 186 666 204 683 q 162 634 169 650 q 161 627 161 629 l 161 536 l 161 531 l 162 526 q 188 494 170 511 q 213 477 205 477 l 373 477 l 373 340 l 213 340 q 187 323 205 340 q 162 293 169 306 l 161 286 l 161 186 l 162 177 q 187 148 169 162 q 213 134 205 134 l 383 134 q 411 151 393 134 q 438 184 429 168 q 440 194 440 193 l 440 397 l 620 397 l 620 255 "},"˝":{"x_min":69.453125,"x_max":743.109375,"ha":515,"o":"m 743 888 l 505 670 l 354 711 l 550 888 l 743 888 m 458 888 l 220 670 l 69 711 l 265 888 l 458 888 "},"Ð":{"x_min":0,"x_max":0,"ha":761},"I":{"x_min":23.609375,"x_max":168.0625,"ha":317,"o":"m 168 -4 l 23 -4 l 23 816 l 168 816 l 168 -4 "},"G":{"x_min":23.609375,"x_max":665.328125,"ha":829,"o":"m 665 -1 l 523 -1 l 516 31 q 431 -4 466 -4 l 230 -4 q 145 20 186 -4 q 91 65 125 33 q 45 116 58 97 q 23 197 23 150 l 23 623 q 45 702 23 669 q 93 757 59 723 q 145 801 126 790 q 230 825 183 825 l 431 825 q 607 711 525 825 q 634 662 625 687 l 495 622 q 431 686 450 675 q 430 686 430 686 l 427 687 l 236 687 l 230 686 q 169 626 194 666 l 168 620 l 168 198 q 190 166 168 187 q 230 136 212 145 l 233 136 q 237 134 236 134 l 425 134 l 431 136 q 472 167 450 147 q 495 198 495 187 l 495 331 l 318 331 l 318 472 l 638 472 l 638 191 q 665 -1 648 100 "},"`":{"x_min":65.28125,"x_max":454.203125,"ha":529,"o":"m 454 711 l 304 670 l 65 888 l 259 888 l 454 711 "},"·":{"x_min":88.890625,"x_max":258.359375,"ha":404,"o":"m 258 272 l 88 272 l 88 411 l 258 411 l 258 272 "},"r":{"x_min":8.328125,"x_max":512.546875,"ha":585,"o":"m 512 465 l 381 426 q 377 431 381 427 q 326 470 343 472 l 300 469 l 243 469 q 158 411 205 469 l 158 -4 l 19 -4 l 19 472 l 8 595 l 147 595 l 150 565 q 238 601 200 601 l 297 601 l 322 601 q 422 568 373 601 q 472 520 441 554 q 512 465 502 487 "},"¿":{"x_min":15.28125,"x_max":595.875,"ha":646,"o":"m 381 650 l 213 650 l 213 812 l 381 812 l 381 650 m 595 190 q 550 101 569 125 q 373 -12 465 -12 l 212 -12 q 115 19 158 -12 q 75 54 100 30 q 40 93 50 79 q 15 177 15 130 l 15 263 q 43 352 15 312 q 115 412 72 391 q 179 441 131 416 q 226 484 226 466 l 226 600 l 369 600 l 369 479 q 338 388 369 426 q 264 330 306 350 q 179 287 222 311 q 159 259 159 277 l 159 179 l 161 172 q 187 140 170 155 q 213 126 204 126 l 369 126 l 372 127 q 376 127 375 127 q 438 190 423 156 l 458 230 l 595 190 "},"ý":{"x_min":0,"x_max":0,"ha":582},"x":{"x_min":-48.609375,"x_max":536.15625,"ha":631,"o":"m 536 -4 l 370 -4 l 244 184 l 118 -4 l -48 -4 l 161 302 l -41 593 l 127 593 l 244 416 l 356 593 l 526 593 l 326 302 l 536 -4 "},"è":{"x_min":11.109375,"x_max":526.4375,"ha":678,"o":"m 526 225 l 150 225 l 150 173 l 151 166 q 178 134 161 150 q 205 119 195 119 l 284 119 l 340 118 q 391 156 358 118 q 395 162 395 161 l 394 162 q 395 162 395 163 l 525 123 q 485 67 515 100 q 436 20 455 34 q 336 -11 388 -11 l 263 -11 l 205 -11 q 104 18 145 -11 q 37 84 65 47 q 11 170 11 120 l 11 419 q 37 504 11 468 q 104 570 65 541 q 205 601 147 601 l 333 601 q 434 570 391 601 q 501 504 477 538 q 526 419 526 470 l 526 225 m 387 355 l 387 416 l 387 422 q 340 468 370 450 q 331 469 337 469 l 205 469 q 177 454 195 469 q 150 422 159 438 l 150 416 l 150 355 l 387 355 m 454 711 l 304 670 l 65 888 l 259 888 l 454 711 "},"º":{"x_min":25,"x_max":413.921875,"ha":557,"o":"m 413 572 q 391 494 413 527 q 360 459 383 481 q 323 427 337 437 q 269 408 306 416 l 233 400 l 205 400 q 115 427 141 409 q 78 459 101 437 q 47 494 55 481 q 25 572 25 527 l 25 665 q 47 741 25 708 q 78 777 55 754 q 115 809 101 801 q 168 829 130 820 l 205 837 l 233 837 q 323 809 298 827 q 360 777 337 801 q 391 741 383 754 q 413 665 413 708 l 413 572 m 284 569 l 284 666 q 258 691 284 672 l 231 712 l 206 712 q 154 666 154 676 l 154 569 q 172 545 154 562 q 202 523 191 527 l 205 523 l 206 523 l 231 523 l 233 523 l 237 523 q 266 545 248 527 q 284 569 284 562 "},"Ø":{"x_min":-11.109375,"x_max":636.15625,"ha":785,"o":"m 636 844 l 577 737 q 633 616 633 682 l 633 190 q 609 109 633 143 q 563 56 595 88 q 511 12 530 23 q 426 -12 470 -12 l 204 -12 q 169 -8 186 -12 l 150 -43 l -11 -43 l 52 72 q 11 126 25 101 q -1 190 -1 151 l -1 616 q 20 695 -1 665 q 68 750 36 716 q 120 795 101 784 q 204 820 165 820 l 426 820 q 461 815 438 820 l 477 844 l 636 844 m 387 680 l 211 680 l 205 679 q 165 645 188 669 q 143 613 143 620 l 143 236 l 387 680 m 487 191 l 487 572 l 243 126 l 419 126 q 465 163 443 141 q 487 191 487 184 "},"∞":{"x_min":0,"x_max":0,"ha":638},"μ":{"x_min":0,"x_max":0,"ha":643},"÷":{"x_min":0,"x_max":0,"ha":600},"h":{"x_min":8.328125,"x_max":520.875,"ha":681,"o":"m 520 -4 l 381 -4 l 381 422 l 380 429 q 336 473 365 455 l 333 475 q 327 475 330 475 l 231 475 q 189 452 219 475 q 145 412 159 430 l 145 -4 l 8 -4 l 8 820 l 145 820 l 145 577 q 229 608 188 608 l 329 608 q 429 577 387 608 q 495 509 463 554 q 520 425 520 473 l 520 -4 "},".":{"x_min":88.890625,"x_max":258.359375,"ha":418,"o":"m 258 -4 l 88 -4 l 88 166 l 258 166 l 258 -4 "},";":{"x_min":-1.390625,"x_max":255.578125,"ha":403,"o":"m 236 344 l 65 344 l 65 525 l 236 525 l 236 344 m 255 120 l 154 -118 l -1 -118 l 120 165 l 255 120 "},"f":{"x_min":-13.890625,"x_max":388.921875,"ha":479,"o":"m 388 691 l 273 691 q 261 690 262 691 q 234 670 248 683 q 218 648 219 657 l 218 637 l 218 590 l 313 590 l 313 458 l 218 458 l 218 -4 l 79 -4 l 79 458 l -13 458 l -13 590 l 79 590 l 79 640 q 104 726 79 693 q 170 793 134 768 q 272 823 213 823 l 388 823 l 388 691 "},"“":{"x_min":48.609375,"x_max":400.03125,"ha":531,"o":"m 400 880 l 387 766 l 387 591 l 251 591 l 251 786 l 262 880 l 400 880 m 197 880 l 184 766 l 184 591 l 48 591 l 48 786 l 59 880 l 197 880 "},"A":{"x_min":-41.671875,"x_max":698.671875,"ha":807,"o":"m 698 -4 l 544 -4 l 484 170 l 172 170 l 111 -4 l -41 -4 l 244 820 l 412 820 l 698 -4 m 438 308 l 329 632 l 218 308 l 438 308 "},"6":{"x_min":11.109375,"x_max":565.328125,"ha":721,"o":"m 565 177 q 540 93 565 130 q 505 53 530 79 q 465 18 480 27 q 369 -12 423 -12 l 354 -12 l 222 -12 l 206 -12 q 111 18 152 -12 q 71 53 97 27 q 36 93 45 79 q 11 176 11 130 l 11 177 l 11 179 l 11 630 l 11 632 q 36 716 11 679 q 71 755 45 730 q 111 791 97 780 q 206 822 152 822 l 354 822 q 529 709 443 822 q 563 648 551 680 l 423 611 l 420 616 q 358 680 398 659 l 354 682 l 350 683 l 208 683 q 182 668 198 683 q 156 638 166 654 l 155 634 l 155 627 l 155 493 q 234 526 204 526 l 369 526 q 465 497 423 526 q 505 461 480 486 q 540 423 530 437 q 565 338 565 386 l 565 179 l 565 177 m 420 337 l 419 344 q 393 376 409 361 q 368 391 377 391 l 238 391 q 216 387 222 391 q 155 326 168 348 l 155 195 l 155 179 l 156 172 q 182 140 166 155 q 208 126 198 126 l 226 126 l 350 126 l 368 126 q 393 140 377 126 q 419 172 409 155 l 419 188 l 420 337 "},"‘":{"x_min":48.609375,"x_max":197.234375,"ha":315,"o":"m 197 890 l 184 776 l 184 601 l 48 601 l 48 795 l 59 890 l 197 890 "},"π":{"x_min":20.828125,"x_max":854.234375,"ha":992,"o":"m 854 188 q 832 109 854 141 q 786 57 819 90 q 732 12 752 25 q 633 -12 688 -12 l 225 -12 q 141 12 181 -12 q 87 57 120 25 q 41 109 54 90 q 20 188 20 141 l 20 619 q 41 697 20 666 q 88 751 55 718 q 141 797 120 784 q 225 822 181 822 l 647 822 q 732 797 691 822 q 785 751 752 784 q 832 697 818 718 q 854 619 854 665 l 854 188 m 716 190 l 716 616 l 716 618 q 681 659 707 634 q 641 690 655 683 l 231 690 q 193 662 218 684 q 159 623 169 640 q 158 616 158 618 l 158 190 q 186 154 158 181 q 230 118 213 126 l 640 118 q 687 154 658 126 q 716 190 716 181 m 618 423 q 604 380 615 397 q 526 313 581 348 q 469 294 501 297 l 381 294 l 381 165 l 255 165 l 255 636 l 450 636 q 537 609 502 636 q 573 578 551 600 q 604 544 595 556 q 618 476 618 523 l 618 462 l 618 423 m 502 455 l 502 456 l 502 470 l 502 472 q 456 515 491 495 q 453 516 455 515 q 450 516 451 516 l 381 516 l 381 415 l 450 415 q 477 429 459 415 q 502 455 495 444 "},"O":{"x_min":25,"x_max":648.65625,"ha":811,"o":"m 648 191 q 626 112 648 145 q 579 58 612 91 q 526 13 545 25 q 441 -11 486 -11 l 256 -11 l 231 -11 q 147 13 187 -11 q 94 58 127 25 q 47 112 61 91 q 25 191 25 145 l 25 443 l 25 616 q 47 695 25 662 q 94 750 61 716 q 147 794 127 783 q 231 819 187 819 l 416 819 l 441 819 q 526 794 486 819 q 579 750 545 783 q 626 695 612 716 q 648 616 648 662 l 648 365 l 648 191 m 504 194 l 504 441 l 504 613 l 502 619 q 443 679 475 662 l 436 680 l 237 680 q 233 680 236 680 l 230 679 q 170 619 198 662 l 169 613 l 169 366 l 169 194 l 170 188 q 230 129 198 145 l 237 127 l 436 127 l 438 127 q 443 129 441 129 q 502 188 475 145 l 504 194 "},"n":{"x_min":8.328125,"x_max":534.765625,"ha":695,"o":"m 534 -4 l 395 -4 l 395 416 l 394 419 q 394 425 394 423 q 351 468 381 448 l 347 469 q 340 469 343 469 l 243 469 q 161 413 212 469 l 161 -4 l 22 -4 l 22 472 l 8 595 l 147 595 l 151 566 q 238 601 200 601 l 341 601 q 443 570 400 601 q 509 504 486 538 q 534 419 534 470 l 534 -4 "},"3":{"x_min":19.453125,"x_max":587.546875,"ha":721,"o":"m 587 177 q 562 93 587 130 q 527 53 552 79 q 487 18 502 27 q 391 -12 445 -12 l 229 -12 q 54 100 140 -12 q 19 159 27 136 l 159 197 l 162 193 q 195 154 175 175 q 229 126 216 133 l 233 126 l 390 126 q 416 140 400 126 q 441 172 431 155 q 443 179 443 177 l 443 288 l 441 295 q 417 325 433 311 q 391 340 401 340 l 390 340 l 215 340 l 215 477 l 390 477 l 391 477 q 417 492 401 477 q 441 522 433 506 l 443 529 l 443 629 l 441 636 q 416 667 431 652 q 390 682 400 682 l 233 682 l 230 680 l 227 680 q 190 653 211 672 q 162 615 169 634 l 161 611 l 20 648 q 54 708 38 686 q 229 820 140 820 l 391 820 q 487 790 445 820 q 527 754 502 780 q 562 715 552 729 q 587 630 587 677 l 587 526 q 531 409 587 465 q 587 291 587 354 l 587 177 "},"9":{"x_min":18.0625,"x_max":572.265625,"ha":721,"o":"m 572 177 q 547 93 572 130 q 511 53 537 79 q 472 18 486 27 q 376 -12 430 -12 l 229 -12 q 54 100 140 -12 q 19 162 33 127 l 159 200 q 166 184 166 184 q 162 193 162 193 q 188 155 169 173 q 223 129 208 137 q 229 127 225 129 l 233 126 l 375 126 q 400 140 384 126 q 426 170 416 155 l 427 175 l 427 181 l 427 316 q 348 286 379 286 l 213 286 q 118 315 159 286 q 77 350 102 326 q 43 388 52 375 q 18 473 18 426 l 18 632 l 18 633 q 43 718 18 680 q 77 757 52 732 q 118 793 102 783 q 213 823 159 823 l 229 823 l 361 823 l 376 823 q 472 793 430 823 q 511 757 486 783 q 547 718 537 732 q 572 634 572 680 l 572 633 l 572 632 l 572 179 l 572 177 m 427 486 l 427 615 l 427 632 l 426 638 q 400 670 416 655 q 375 684 384 684 l 356 684 l 233 684 l 215 684 q 189 670 205 684 q 163 638 173 655 l 163 622 l 162 475 l 163 468 q 189 436 173 451 q 215 420 205 420 l 344 420 q 368 425 362 420 q 427 486 415 463 "},"l":{"x_min":18.0625,"x_max":166.6875,"ha":326,"o":"m 166 -4 l 31 -4 q 18 98 18 88 l 18 820 l 154 820 l 154 113 q 159 62 154 100 q 166 -4 163 25 "},"¤":{"x_min":0,"x_max":630.609375,"ha":810,"o":"m 630 154 q 601 101 618 125 q 426 -12 513 -12 l 254 -12 q 169 12 209 -12 q 115 57 148 25 q 69 109 83 90 q 47 188 47 143 l 47 258 l 0 258 l 0 383 l 47 383 l 47 419 l 0 419 l 0 545 l 47 545 l 47 616 q 69 694 47 661 q 116 748 83 715 q 169 793 150 782 q 254 818 213 818 l 426 818 q 601 704 513 818 l 630 655 l 490 615 q 426 679 444 668 l 422 679 l 259 679 l 254 677 q 193 618 216 655 q 191 604 191 613 l 191 545 l 518 545 l 518 419 l 191 419 l 191 383 l 518 383 l 518 258 l 191 258 l 191 190 q 215 158 191 179 q 256 126 238 137 l 259 126 l 422 126 l 426 126 q 463 161 436 131 l 490 191 l 630 154 "},"∂":{"x_min":0,"x_max":0,"ha":695},"4":{"x_min":11.109375,"x_max":608.375,"ha":721,"o":"m 608 162 l 520 162 l 520 -4 l 379 -4 l 379 162 l 11 162 l 11 286 l 356 818 l 520 818 l 520 300 l 608 300 l 608 162 m 379 300 l 379 588 l 194 300 l 379 300 "},"p":{"x_min":8.328125,"x_max":534.765625,"ha":689,"o":"m 534 159 q 509 73 534 108 q 443 5 477 29 q 343 -23 401 -23 l 241 -23 q 159 8 205 -23 l 159 -237 l 20 -237 l 20 465 l 8 588 l 147 588 l 151 558 q 241 595 200 595 l 343 595 q 443 565 401 595 q 509 497 484 534 q 534 411 534 461 l 534 159 m 395 162 l 395 408 l 394 416 q 350 461 379 443 q 341 463 344 463 l 245 463 q 204 441 234 463 q 159 401 175 418 l 159 169 q 204 130 175 152 q 245 108 234 108 l 341 108 q 347 108 344 108 l 350 109 q 394 155 377 127 q 395 162 395 161 "},"‡":{"x_min":0,"x_max":0,"ha":542},"à":{"x_min":-13.890625,"x_max":519.484375,"ha":676,"o":"m 519 -5 l 381 -5 l 377 22 q 290 -12 329 -12 l 176 -12 q 76 18 119 -12 q 11 83 38 45 q -13 168 -13 118 l -13 193 q 11 277 -13 243 q 76 343 38 315 q 176 373 119 373 l 369 373 l 369 416 l 369 422 q 322 466 354 448 q 313 469 316 469 l 191 469 q 140 430 173 469 q 136 425 136 426 l 5 463 q 45 519 15 486 q 95 566 76 552 q 195 600 144 600 l 315 600 q 416 569 373 600 q 483 504 462 536 q 506 418 506 472 l 506 116 l 519 -5 m 370 175 l 370 243 l 177 243 q 172 241 175 243 l 169 241 q 123 194 140 223 l 123 191 l 123 169 l 123 166 q 169 120 138 140 q 177 118 175 118 l 286 118 q 328 140 295 118 q 370 175 361 163 m 454 711 l 304 670 l 65 888 l 259 888 l 454 711 "},"Ü":{"x_min":11.109375,"x_max":600.046875,"ha":770,"o":"m 600 191 q 577 112 600 145 q 530 58 563 91 q 477 13 497 25 q 393 -11 437 -11 l 243 -11 l 218 -11 q 133 13 173 -11 q 80 58 113 25 q 33 112 47 91 q 11 191 11 145 l 11 818 l 155 818 l 155 194 l 156 188 q 216 129 184 145 l 223 127 l 387 127 q 391 127 388 127 l 394 129 q 454 188 426 145 l 455 194 l 455 818 l 600 818 l 600 191 m 488 890 l 339 890 l 339 1047 l 488 1047 l 488 890 m 278 890 l 129 890 l 129 1047 l 278 1047 l 278 890 "},"ó":{"x_min":11.109375,"x_max":525.046875,"ha":679,"o":"m 525 170 q 501 86 525 118 q 434 18 476 48 q 333 -11 393 -11 l 202 -11 q 102 18 144 -11 q 65 51 87 29 q 34 86 43 73 q 11 170 11 118 l 11 419 q 34 504 11 472 q 102 570 56 537 q 202 601 145 601 l 333 601 q 434 570 391 601 q 501 504 477 538 q 525 419 525 472 l 525 170 m 386 163 l 386 173 l 386 415 l 386 419 q 384 423 384 422 q 338 468 368 451 q 331 469 336 469 l 204 469 q 197 468 200 469 q 150 423 165 448 l 148 415 l 148 173 l 148 163 q 195 120 148 148 q 204 119 201 119 l 331 119 q 340 122 334 119 q 368 143 352 129 q 386 163 384 156 m 458 888 l 220 670 l 69 711 l 265 888 l 458 888 "},"√":{"x_min":0,"x_max":0,"ha":900}}}
